<svg width="251" height="87" viewBox="0 0 251 87" fill="none" xmlns="http://www.w3.org/2000/svg">
<g clip-path="url(#clip0_1_2)">
<g filter="url(#filter0_d_1_2)">
<path d="M14.3229 82.6345C13.6344 82.7793 12.9934 82.6841 12.3999 82.349C11.8001 81.9886 11.4025 81.4705 11.2071 80.7945L8.85407 71.3569C8.43203 69.5565 8.26261 67.8006 8.3458 66.089C8.45426 64.3711 8.94157 62.8271 9.80773 61.4571C10.6929 60.0555 12.0072 59.0837 13.7508 58.5416L28.381 54.8939C29.0696 54.749 29.7011 54.86 30.2756 55.2266C30.8691 55.5618 31.2635 56.0673 31.4589 56.7432C31.6353 57.4507 31.5465 58.117 31.1924 58.7421C30.8636 59.3609 30.3485 59.7711 29.6473 59.9727L16.3058 63.2992C15.3582 63.5891 14.6536 64.1539 14.192 64.9937C13.7304 65.8334 13.5214 66.7175 13.565 67.646C13.6276 68.5429 13.8007 69.5062 14.0843 70.5359L16.3239 79.5188C16.4751 80.2326 16.3578 80.8925 15.9721 81.4986C15.5802 82.0794 15.0304 82.4581 14.3229 82.6345ZM16.2342 71.57C16.0578 70.8625 16.1624 70.2057 16.5481 69.5996C16.9022 68.9745 17.433 68.5738 18.1405 68.3974L30.9514 65.2032C31.6589 65.0268 32.3158 65.1315 32.9218 65.5171C33.5469 65.8712 33.9476 66.402 34.124 67.1095C34.3004 67.817 34.2116 68.4833 33.8575 69.1084C33.4718 69.7145 32.9253 70.1057 32.2178 70.2821L19.4068 73.4763C18.6993 73.6527 18.033 73.5638 17.408 73.2097C16.8019 72.8241 16.4106 72.2775 16.2342 71.57ZM37.6414 63.1327C37.8191 61.8001 38.3568 60.512 39.2545 59.2683C40.1711 57.993 41.5106 57.1222 43.2731 56.656L57.5243 53.1027C58.2318 52.9263 58.8886 53.031 59.4947 53.4166C60.1198 53.7707 60.5205 54.3015 60.6969 55.009C60.8733 55.7165 60.7719 56.386 60.3925 57.0173C60.0321 57.6171 59.4981 58.0052 58.7906 58.1816L44.3878 61.7727C43.9077 61.8924 43.5412 62.1985 43.2882 62.691C43.029 63.1582 42.8644 63.6823 42.7946 64.2633C42.75 64.8381 42.7876 65.3655 42.9073 65.8456L44.561 72.4785C44.7874 74.0323 44.1583 75.0615 42.6738 75.5658C41.9663 75.7422 41.2905 75.6691 40.6465 75.3466C40.0214 74.9925 39.6207 74.4617 39.4443 73.7542L37.7999 67.1592L37.8378 67.1498C37.5102 65.8358 37.4448 64.4968 37.6414 63.1327ZM88.7929 61.4502L86.5154 52.3158C86.3579 51.6841 85.9475 51.4375 85.2843 51.576L72.0185 54.8836C71.5447 55.0285 71.1813 55.3473 70.9284 55.8398C70.6691 56.307 70.5172 56.828 70.4726 57.4027C70.447 57.9458 70.5004 58.4827 70.6327 59.0134C70.7587 59.5187 70.9636 60.0178 71.2475 60.5107C71.5504 60.9719 71.9291 61.3606 72.3837 61.6767C72.8319 61.9675 73.2961 62.0531 73.7762 61.9334L83.4792 59.5141C84.1867 59.3377 84.8435 59.4424 85.4496 59.828C86.0746 60.1821 86.4754 60.7129 86.6518 61.4204C86.8282 62.1279 86.7235 62.7847 86.3379 63.3908C85.9838 64.0159 85.453 64.4166 84.7455 64.593L75.1941 66.9745C73.4191 67.3902 71.8307 67.2629 70.4289 66.5925C69.0462 65.8905 67.9509 64.9961 67.1431 63.9092C66.3543 62.7908 65.7961 61.5746 65.4685 60.2607C65.1535 58.9973 65.0975 57.6961 65.3005 56.3573C65.4971 54.9931 66.0443 53.6892 66.942 52.4455C67.8333 51.1766 69.3813 50.227 71.586 49.5968L87.505 45.6277C88.2125 45.4513 88.8787 45.5402 89.5038 45.8943C90.1226 46.2231 90.5328 46.7381 90.7345 47.4393L93.9097 60.1745C94.0861 60.882 93.9688 61.5419 93.5579 62.1543C93.1659 62.7351 92.6162 63.1138 91.9087 63.2902C90.3611 63.5418 89.3225 62.9285 88.7929 61.4502ZM117.785 44.5195C117.627 43.8878 117.217 43.6412 116.554 43.7797L103.288 47.0873C102.814 47.2322 102.451 47.551 102.198 48.0434C101.938 48.5107 101.787 49.0316 101.742 49.6064C101.716 50.1495 101.77 50.6864 101.902 51.2171C102.028 51.7224 102.233 52.2215 102.517 52.7143C102.82 53.1756 103.198 53.5643 103.653 53.8804C104.101 54.1712 104.565 54.2568 105.046 54.1371L114.748 51.7178C115.456 51.5414 116.113 51.6461 116.719 52.0317C117.344 52.3858 117.745 52.9166 117.921 53.6241C118.097 54.3316 117.993 54.9884 117.607 55.5945C117.253 56.2196 116.722 56.6203 116.015 56.7967L106.463 59.1781C104.688 59.5939 103.1 59.4666 101.698 58.7962C100.315 58.0942 99.2202 57.1998 98.4124 56.1129C97.6236 54.9945 97.0654 53.7783 96.7378 52.4644C96.4228 51.201 96.3668 49.8998 96.5698 48.561C96.7664 47.1968 97.3136 45.8929 98.2112 44.6492C99.1026 43.3803 100.651 42.4307 102.855 41.8005L118.774 37.8314C119.482 37.655 120.148 37.7439 120.773 38.098C121.392 38.4268 121.802 38.9418 122.004 39.643L124.99 51.6201C125.494 53.6416 125.692 55.6186 125.583 57.5512C125.475 59.2691 124.975 60.8162 124.083 62.1926C123.223 63.5879 121.922 64.5566 120.178 65.0986L107.064 68.3684C106.375 68.5132 105.731 68.4054 105.131 68.045C104.563 67.7036 104.181 67.1949 103.986 66.519C103.81 65.8115 103.886 65.1483 104.215 64.5296C104.569 63.9045 105.096 63.4911 105.798 63.2895L117.623 60.341C118.571 60.0511 119.275 59.4863 119.737 58.6465C120.199 57.8068 120.404 56.91 120.354 55.9563C120.304 55.0025 120.1 53.8055 119.741 52.3652L117.785 44.5195ZM133.525 52.914C132.837 53.0588 132.196 52.9637 131.602 52.6285C131.002 52.2681 130.605 51.75 130.409 51.074L128.056 41.6364C127.634 39.8361 127.465 38.0801 127.548 36.3685C127.657 34.6506 128.144 33.1066 129.01 31.7366C129.895 30.335 131.21 29.3632 132.953 28.8211L147.583 25.1734C148.272 25.0285 148.903 25.1395 149.478 25.5062C150.071 25.8413 150.466 26.3468 150.661 27.0228C150.838 27.7303 150.749 28.3966 150.395 29.0216C150.066 29.6404 149.551 30.0506 148.85 30.2523L135.508 33.5787C134.561 33.8686 133.856 34.4335 133.394 35.2732C132.933 36.1129 132.724 36.9971 132.767 37.9255C132.83 38.8225 133.003 39.7858 133.287 40.8155L135.526 49.7983C135.677 50.5121 135.56 51.172 135.174 51.7781C134.783 52.359 134.233 52.7376 133.525 52.914ZM135.437 41.8495C135.26 41.142 135.365 40.4852 135.75 39.8791C136.105 39.254 136.635 38.8533 137.343 38.6769L150.154 35.4828C150.861 35.3064 151.518 35.411 152.124 35.7967C152.749 36.1507 153.15 36.6815 153.326 37.3891C153.503 38.0966 153.414 38.7628 153.06 39.3879C152.674 39.994 152.128 40.3853 151.42 40.5617L138.609 43.7558C137.902 43.9322 137.235 43.8433 136.61 43.4892C136.004 43.1036 135.613 42.557 135.437 41.8495ZM166.917 44.1053C164.675 44.5839 162.865 44.4848 161.489 43.8082C160.106 43.1062 159.011 42.2118 158.203 41.1249C157.389 40.0128 156.825 38.825 156.51 37.5616C156.182 36.2477 156.107 34.9244 156.285 33.5918C156.481 32.2277 157.029 30.9238 157.926 29.6801C158.843 28.4048 160.182 27.5341 161.945 27.0678L176.348 23.4768C177.055 23.3004 177.709 23.3924 178.309 23.7528C178.927 24.0816 179.319 24.5745 179.482 25.2314C179.653 25.9137 179.545 26.5579 179.159 27.1639C178.792 27.7385 178.255 28.1139 177.548 28.2903L163.372 31.8247C162.817 31.9633 162.371 32.2756 162.036 32.7618C161.726 33.2416 161.546 33.8099 161.495 34.4667C161.469 35.1173 161.529 35.7331 161.674 36.3143C161.831 36.946 162.074 37.543 162.402 38.1054C162.755 38.6614 163.181 39.0785 163.68 39.3567C164.198 39.6034 164.738 39.67 165.3 39.5567L179.476 36.0224C180.183 35.846 180.834 35.9253 181.427 36.2605C182.046 36.5893 182.434 37.0696 182.592 37.7013C182.755 38.3582 182.641 38.9771 182.249 39.558C181.883 40.1325 181.345 40.508 180.638 40.6844L166.917 44.1053ZM180.559 31.485C180.678 31.9651 180.567 32.4356 180.226 32.8964C179.929 33.3194 179.49 33.6034 178.909 33.7483L166.515 36.8384C165.933 36.9833 165.4 36.9419 164.914 36.7143C164.421 36.4613 164.115 36.0948 163.995 35.6147C163.882 35.1599 163.983 34.7052 164.299 34.2506C164.622 33.8213 165.073 33.5342 165.655 33.3893L178.049 30.2992C178.63 30.1543 179.167 30.2083 179.659 30.4612C180.145 30.6889 180.445 31.0302 180.559 31.485ZM195.306 37.0272C193.064 37.5058 191.254 37.4067 189.878 36.73C188.495 36.0281 187.4 35.1337 186.592 34.0468C185.778 32.9347 185.213 31.7469 184.898 30.4835C184.571 29.1696 184.496 27.8463 184.673 26.5137C184.87 25.1496 185.417 23.8457 186.315 22.602C187.232 21.3267 188.571 20.456 190.334 19.9897L204.736 16.3987C205.444 16.2223 206.098 16.3143 206.697 16.6746C207.316 17.0035 207.707 17.4964 207.871 18.1533C208.041 18.8356 207.934 19.4797 207.548 20.0858C207.181 20.6604 206.644 21.0358 205.937 21.2122L191.761 24.7466C191.205 24.8852 190.76 25.1975 190.425 25.6836C190.115 26.1635 189.935 26.7318 189.884 27.3886C189.858 28.0392 189.918 28.655 190.062 29.2362C190.22 29.8679 190.463 30.4649 190.791 31.0272C191.144 31.5833 191.57 32.0004 192.069 32.2786C192.587 32.5253 193.127 32.5919 193.689 32.4786L207.864 28.9443C208.572 28.7679 209.222 28.8472 209.816 29.1824C210.435 29.5112 210.823 29.9915 210.98 30.6232C211.144 31.2801 211.03 31.899 210.638 32.4799C210.271 33.0544 209.734 33.4298 209.027 33.6062L195.306 37.0272ZM208.947 24.4069C209.067 24.887 208.956 25.3575 208.615 25.8183C208.318 26.2413 207.879 26.5252 207.297 26.6702L194.903 29.7603C194.322 29.9052 193.788 29.8638 193.302 29.6361C192.81 29.3832 192.504 29.0167 192.384 28.5366C192.271 28.0818 192.372 27.6271 192.688 27.1725C193.01 26.7432 193.462 26.4561 194.043 26.3112L206.437 23.2211C207.019 23.0762 207.555 23.1302 208.048 23.3831C208.534 23.6108 208.834 23.9521 208.947 24.4069ZM231.924 6.11757C231.698 4.56368 232.327 3.53456 233.811 3.03022C234.519 2.85382 235.185 2.94266 235.81 3.29676C236.454 3.61928 236.864 4.1343 237.041 4.84181L241.539 22.8832C241.69 23.5971 241.573 24.257 241.187 24.8631C240.795 25.4439 240.245 25.8225 239.538 25.9989L223.619 29.968C221.377 30.4466 219.567 30.3475 218.191 29.6708C216.808 28.9689 215.713 28.0745 214.905 26.9876C214.091 25.8755 213.526 24.6877 213.211 23.4243C212.884 22.1104 212.809 20.7871 212.986 19.4545C213.183 18.0904 213.73 16.7865 214.628 15.5428C215.544 14.2675 216.884 13.3968 218.646 12.9305L228.198 10.5491C228.905 10.3727 229.562 10.4773 230.168 10.863C230.793 11.217 231.194 11.7478 231.37 12.4554C231.547 13.1629 231.445 13.8323 231.066 14.4637C230.706 15.0635 230.172 15.4516 229.464 15.628L219.761 18.0472C219.281 18.1669 218.915 18.473 218.662 18.9655C218.402 19.4327 218.25 19.9537 218.206 20.5284C218.18 21.0716 218.23 21.5958 218.356 22.1012C218.489 22.6318 218.697 23.1435 218.981 23.6364C219.284 24.0976 219.662 24.4863 220.117 24.8024C220.565 25.0932 221.033 25.1914 221.519 25.097L234.785 21.7895C235.435 21.6004 235.682 21.19 235.524 20.5583L231.924 6.11757Z" fill="#A10000"/>
<path d="M14.3229 82.6345L14.5288 83.613L14.5469 83.6092L14.5649 83.6047L14.3229 82.6345ZM12.3999 82.349L11.8848 83.2062L11.8964 83.2131L11.9082 83.2198L12.3999 82.349ZM11.2071 80.7945L10.2368 81.0364L10.2413 81.0544L10.2465 81.0722L11.2071 80.7945ZM8.85407 71.3569L7.88036 71.5851L7.88377 71.5988L8.85407 71.3569ZM8.3458 66.089L7.34779 66.026L7.34733 66.0332L7.34698 66.0404L8.3458 66.089ZM9.80773 61.4571L10.653 61.9915L10.6532 61.9911L9.80773 61.4571ZM13.7508 58.5416L13.5089 57.5713L13.4812 57.5782L13.4539 57.5867L13.7508 58.5416ZM28.381 54.8939L28.1752 53.9153L28.1571 53.9191L28.1391 53.9236L28.381 54.8939ZM30.2756 55.2266L29.7376 56.0696L29.7604 56.0841L29.7839 56.0974L30.2756 55.2266ZM31.4589 56.7432L32.4292 56.5013L32.4247 56.4834L32.4196 56.4656L31.4589 56.7432ZM31.1924 58.7421L30.3223 58.2492L30.3157 58.2609L30.3093 58.2728L31.1924 58.7421ZM29.6473 59.9727L29.8893 60.943L29.9066 60.9387L29.9237 60.9338L29.6473 59.9727ZM16.3058 63.2992L16.0638 62.3289L16.0383 62.3352L16.0132 62.3429L16.3058 63.2992ZM13.565 67.646L12.5661 67.693L12.5667 67.7043L12.5674 67.7156L13.565 67.646ZM14.0843 70.5359L15.0546 70.294L15.0516 70.2822L15.0484 70.2704L14.0843 70.5359ZM16.3239 79.5188L17.3022 79.3116L17.2985 79.2942L17.2942 79.2768L16.3239 79.5188ZM15.9721 81.4986L16.801 82.058L16.8086 82.0468L16.8158 82.0355L15.9721 81.4986ZM16.5481 69.5996L17.3918 70.1364L17.4056 70.1148L17.4182 70.0925L16.5481 69.5996ZM32.9218 65.5171L32.385 66.3608L32.4066 66.3746L32.4289 66.3872L32.9218 65.5171ZM33.8575 69.1084L34.7012 69.6452L34.715 69.6236L34.7276 69.6013L33.8575 69.1084ZM17.408 73.2097L16.8711 74.0534L16.8928 74.0672L16.9151 74.0798L17.408 73.2097ZM14.1171 81.6559C13.658 81.7524 13.266 81.6897 12.8916 81.4782L11.9082 83.2198C12.7207 83.6786 13.6108 83.8061 14.5288 83.613L14.1171 81.6559ZM12.9149 81.4918C12.5328 81.2623 12.2935 80.9518 12.1678 80.5168L10.2465 81.0722C10.5115 81.9891 11.0674 82.715 11.8848 83.2062L12.9149 81.4918ZM12.1774 80.5526L9.82436 71.115L7.88377 71.5988L10.2368 81.0364L12.1774 80.5526ZM9.82767 71.1286C9.42521 69.4118 9.26629 67.7491 9.34462 66.1375L7.34698 66.0404C7.25893 67.8521 7.43885 69.7013 7.88046 71.5851L9.82767 71.1286ZM9.34381 66.152C9.44238 64.5908 9.88204 63.2109 10.653 61.9915L8.96249 60.9227C8.0011 62.4434 7.46614 64.1513 7.34779 66.026L9.34381 66.152ZM10.6532 61.9911C11.3982 60.8114 12.5065 59.9756 14.0477 59.4965L13.4539 57.5867C11.5079 58.1917 9.98752 59.2996 8.96222 60.9231L10.6532 61.9911ZM13.9927 59.5119L28.6229 55.8642L28.1391 53.9236L13.5089 57.5713L13.9927 59.5119ZM28.5869 55.8724C29.0285 55.7795 29.3916 55.8487 29.7376 56.0696L30.8136 54.3837C30.0106 53.8712 29.1106 53.7185 28.1752 53.9153L28.5869 55.8724ZM29.7839 56.0974C30.1414 56.2993 30.3729 56.5874 30.4982 57.0209L32.4196 56.4656C32.1542 55.5472 31.5968 54.8243 30.7673 54.3559L29.7839 56.0974ZM30.4886 56.9852C30.604 57.4481 30.5479 57.8509 30.3223 58.2492L32.0625 59.235C32.545 58.3832 32.6666 57.4534 32.4292 56.5013L30.4886 56.9852ZM30.3093 58.2728C30.1135 58.6414 29.8237 58.8815 29.3709 59.0117L29.9237 60.9338C30.8734 60.6607 31.6136 60.0804 32.0754 59.2114L30.3093 58.2728ZM29.4054 59.0025L16.0638 62.3289L16.5477 64.2695L29.8893 60.943L29.4054 59.0025ZM16.0132 62.3429C14.8261 62.7061 13.9073 63.4356 13.3157 64.512L15.0683 65.4754C15.3998 64.8723 15.8902 64.4721 16.5984 64.2554L16.0132 62.3429ZM13.3157 64.512C12.7681 65.508 12.5136 66.5744 12.5661 67.693L14.5639 67.5991C14.5292 66.8606 14.6926 66.1588 15.0683 65.4754L13.3157 64.512ZM12.5674 67.7156C12.6354 68.6898 12.8221 69.7193 13.1202 70.8014L15.0484 70.2704C14.7792 69.2932 14.6198 68.3961 14.5626 67.5764L12.5674 67.7156ZM13.114 70.7779L15.3536 79.7607L17.2942 79.2768L15.0546 70.294L13.114 70.7779ZM15.3456 79.7259C15.4435 80.1881 15.3712 80.5803 15.1285 80.9618L16.8158 82.0355C17.3444 81.2047 17.5066 80.277 17.3022 79.3116L15.3456 79.7259ZM15.1432 80.9392C14.8955 81.3063 14.5595 81.5449 14.081 81.6642L14.5649 83.6047C15.5014 83.3712 16.2649 82.8525 16.801 82.058L15.1432 80.9392ZM17.2045 71.3281C17.0933 70.882 17.1558 70.5073 17.3918 70.1364L15.7044 69.0627C15.1691 69.904 15.0223 70.8429 15.2639 71.8119L17.2045 71.3281ZM17.4182 70.0925C17.6349 69.7099 17.9364 69.4789 18.3824 69.3677L17.8986 67.4271C16.9296 67.6687 16.1695 68.2391 15.678 69.1067L17.4182 70.0925ZM18.3824 69.3677L31.1934 66.1735L30.7095 64.233L17.8986 67.4271L18.3824 69.3677ZM31.1934 66.1735C31.6394 66.0623 32.0141 66.1248 32.385 66.3608L33.4587 64.6735C32.6174 64.1382 31.6785 63.9914 30.7095 64.233L31.1934 66.1735ZM32.4289 66.3872C32.8115 66.6039 33.0425 66.9054 33.1537 67.3515L35.0943 66.8676C34.8527 65.8987 34.2823 65.1385 33.4147 64.647L32.4289 66.3872ZM33.1537 67.3515C33.2692 67.8144 33.2131 68.2172 32.9874 68.6155L34.7276 69.6013C35.2101 68.7495 35.3317 67.8197 35.0943 66.8676L33.1537 67.3515ZM33.0138 68.5716C32.7681 68.9578 32.4388 69.1964 31.9758 69.3118L32.4597 71.2524C33.4118 71.0151 34.1756 70.4712 34.7012 69.6452L33.0138 68.5716ZM31.9758 69.3118L19.1649 72.506L19.6487 74.4466L32.4597 71.2524L31.9758 69.3118ZM19.1649 72.506C18.702 72.6214 18.2992 72.5653 17.9009 72.3396L16.9151 74.0798C17.7669 74.5624 18.6967 74.6839 19.6487 74.4466L19.1649 72.506ZM17.9448 72.366C17.5586 72.1203 17.3199 71.791 17.2045 71.3281L15.2639 71.8119C15.5013 72.764 16.0452 73.5278 16.8711 74.0534L17.9448 72.366ZM37.6414 63.1327L38.6313 63.2754L38.6327 63.2648L37.6414 63.1327ZM39.2545 59.2683L40.0653 59.8535L40.0665 59.8519L39.2545 59.2683ZM43.2731 56.656L43.0312 55.6857L43.0243 55.6874L43.0174 55.6892L43.2731 56.656ZM59.4947 53.4166L58.9579 54.2603L58.9795 54.2741L59.0018 54.2867L59.4947 53.4166ZM60.3925 57.0173L59.5353 56.5023L60.3925 57.0173ZM43.2882 62.691L44.1627 63.1761L44.1704 63.1621L44.1778 63.1478L43.2882 62.691ZM42.7946 64.2633L41.8017 64.144L41.7992 64.165L41.7976 64.186L42.7946 64.2633ZM44.561 72.4785L45.5506 72.3343L45.5434 72.2849L45.5313 72.2365L44.561 72.4785ZM42.6738 75.5658L42.9157 76.5361L42.956 76.526L42.9954 76.5127L42.6738 75.5658ZM40.6465 75.3466L40.1536 76.2167L40.1758 76.2293L40.1987 76.2408L40.6465 75.3466ZM37.7999 67.1592L37.558 66.1889L36.5877 66.4309L36.8296 67.4012L37.7999 67.1592ZM37.8378 67.1498L38.0798 68.1201L39.0501 67.8782L38.8081 66.9079L37.8378 67.1498ZM38.6327 63.2648C38.7856 62.1177 39.2505 60.9824 40.0653 59.8535L38.4436 58.683C37.4631 60.0415 36.8526 61.4825 36.6502 63.0005L38.6327 63.2648ZM40.0665 59.8519C40.8265 58.7946 41.9527 58.0397 43.5289 57.6227L43.0174 55.6892C41.0686 56.2048 39.5157 57.1915 38.4425 58.6846L40.0665 59.8519ZM43.515 57.6263L57.7663 54.073L57.2824 52.1325L43.0312 55.6857L43.515 57.6263ZM57.7663 54.073C58.2123 53.9618 58.587 54.0243 58.9579 54.2603L60.0316 52.573C59.1903 52.0377 58.2514 51.8909 57.2824 52.1325L57.7663 54.073ZM59.0018 54.2867C59.3844 54.5034 59.6154 54.8049 59.7266 55.251L61.6672 54.7671C61.4256 53.7982 60.8552 53.038 59.9876 52.5465L59.0018 54.2867ZM59.7266 55.251C59.8381 55.6982 59.7796 56.0957 59.5353 56.5023L61.2497 57.5324C61.7641 56.6763 61.9085 55.7349 61.6672 54.7671L59.7266 55.251ZM59.5353 56.5023C59.3178 56.8643 59.011 57.0961 58.5487 57.2113L59.0326 59.1519C59.9853 58.9144 60.7464 58.37 61.2497 57.5324L59.5353 56.5023ZM58.5487 57.2113L44.1459 60.8024L44.6297 62.743L59.0326 59.1519L58.5487 57.2113ZM44.1459 60.8024C43.3508 61.0006 42.7659 61.5192 42.3987 62.2341L44.1778 63.1478C44.3165 62.8777 44.4646 62.7841 44.6297 62.743L44.1459 60.8024ZM42.4138 62.2058C42.0861 62.7965 41.8856 63.4468 41.8017 64.144L43.7875 64.3827C43.8433 63.9178 43.9719 63.5199 44.1627 63.1761L42.4138 62.2058ZM41.7976 64.186C41.746 64.8506 41.7874 65.4875 41.937 66.0875L43.8776 65.6036C43.7878 65.2434 43.754 64.8255 43.7916 64.3407L41.7976 64.186ZM41.937 66.0875L43.5908 72.7204L45.5313 72.2365L43.8776 65.6036L41.937 66.0875ZM43.5715 72.6226C43.6613 73.2393 43.5659 73.6323 43.4058 73.8941C43.2459 74.1558 42.9404 74.4191 42.3521 74.6189L42.9954 76.5127C43.8918 76.2082 44.6431 75.7047 45.1122 74.9373C45.5812 74.17 45.6872 73.2715 45.5506 72.3343L43.5715 72.6226ZM42.4318 74.5955C41.9528 74.7149 41.5219 74.6667 41.0942 74.4525L40.1987 76.2408C41.059 76.6716 41.9797 76.7695 42.9157 76.5361L42.4318 74.5955ZM41.1393 74.4765C40.7568 74.2598 40.5258 73.9583 40.4146 73.5123L38.474 73.9961C38.7155 74.9651 39.286 75.7252 40.1536 76.2167L41.1393 74.4765ZM40.4146 73.5123L38.7702 66.9173L36.8296 67.4012L38.474 73.9961L40.4146 73.5123ZM38.0419 68.1295L38.0798 68.1201L37.5959 66.1795L37.558 66.1889L38.0419 68.1295ZM38.8081 66.9079C38.5125 65.7219 38.4527 64.5136 38.6312 63.2754L36.6517 62.99C36.4369 64.48 36.508 65.9498 36.8675 67.3917L38.8081 66.9079ZM88.7929 61.4502L87.8226 61.6921L87.8347 61.7405L87.8515 61.7875L88.7929 61.4502ZM85.2843 51.576L85.0798 50.5972L85.061 50.6011L85.0423 50.6057L85.2843 51.576ZM72.0185 54.8836L71.7766 53.9133L71.7511 53.9196L71.7259 53.9273L72.0185 54.8836ZM70.9284 55.8398L71.8028 56.3249L71.8106 56.3109L71.8179 56.2966L70.9284 55.8398ZM70.4726 57.4027L69.4756 57.3254L69.4745 57.3405L69.4737 57.3556L70.4726 57.4027ZM71.2475 60.5107L70.381 61.0098L70.3956 61.0351L70.4116 61.0595L71.2475 60.5107ZM72.3837 61.6767L71.8128 62.4977L71.826 62.5069L71.8394 62.5156L72.3837 61.6767ZM85.4496 59.828L84.9127 60.6717L84.9344 60.6855L84.9567 60.6981L85.4496 59.828ZM86.3379 63.3908L85.4942 62.854L85.4804 62.8756L85.4678 62.8979L86.3379 63.3908ZM75.1941 66.9745L75.4222 67.9481L75.4291 67.9465L75.4361 67.9448L75.1941 66.9745ZM70.4289 66.5925L69.9763 67.4842L69.9868 67.4895L69.9975 67.4946L70.4289 66.5925ZM67.1431 63.9092L66.3259 64.4856L66.3331 64.4958L66.3405 64.5058L67.1431 63.9092ZM65.3005 56.3573L66.2892 56.5071L66.2902 56.5L65.3005 56.3573ZM66.942 52.4455L67.7529 53.0308L67.7602 53.0203L66.942 52.4455ZM71.586 49.5968L71.3441 48.6265L71.3276 48.6306L71.3112 48.6353L71.586 49.5968ZM89.5038 45.8943L89.0109 46.7644L89.0226 46.771L89.0345 46.7773L89.5038 45.8943ZM90.7345 47.4393L91.7048 47.1974L91.7004 47.1801L91.6955 47.1629L90.7345 47.4393ZM93.5579 62.1543L94.3868 62.7137L94.3883 62.7115L93.5579 62.1543ZM91.9087 63.2902L92.0692 64.2772L92.1103 64.2705L92.1506 64.2604L91.9087 63.2902ZM89.7632 61.2083L87.4857 52.0739L85.5451 52.5577L87.8226 61.6921L89.7632 61.2083ZM87.4857 52.0739C87.3665 51.5957 87.1091 51.1031 86.6045 50.7999C86.108 50.5015 85.5557 50.4978 85.0798 50.5972L85.4887 52.5549C85.5328 52.5457 85.5667 52.5414 85.5914 52.5397C85.616 52.5379 85.6297 52.5389 85.6342 52.5393C85.6384 52.5397 85.6332 52.5396 85.6213 52.5358C85.6089 52.5319 85.5925 52.5251 85.5745 52.5142C85.5564 52.5034 85.5409 52.491 85.5289 52.4791C85.517 52.4674 85.5113 52.459 85.5101 52.4572C85.5087 52.455 85.5261 52.4815 85.5451 52.5577L87.4857 52.0739ZM85.0423 50.6057L71.7766 53.9133L72.2604 55.8539L85.5262 52.5463L85.0423 50.6057ZM71.7259 53.9273C70.9624 54.161 70.3993 54.6811 70.0389 55.3829L71.8179 56.2966C71.9634 56.0134 72.1271 55.8961 72.3111 55.8398L71.7259 53.9273ZM70.054 55.3546C69.7197 55.957 69.5304 56.6189 69.4756 57.3254L71.4696 57.48C71.504 57.037 71.6186 56.6569 71.8028 56.3249L70.054 55.3546ZM69.4737 57.3556C69.4435 57.9965 69.5067 58.6308 69.6624 59.2553L71.603 58.7714C71.4941 58.3347 71.4505 57.8952 71.4715 57.4498L69.4737 57.3556ZM69.6624 59.2553C69.8128 59.8587 70.055 60.4438 70.381 61.0098L72.114 60.0115C71.8723 59.5918 71.7045 59.1788 71.603 58.7714L69.6624 59.2553ZM70.4116 61.0595C70.7849 61.628 71.2537 62.1089 71.8128 62.4977L72.9546 60.8557C72.6046 60.6123 72.316 60.3159 72.0834 59.9618L70.4116 61.0595ZM71.8394 62.5156C72.4995 62.9438 73.246 63.0962 74.0181 62.9037L73.5343 60.9631C73.3462 61.01 73.1644 60.9912 72.928 60.8378L71.8394 62.5156ZM74.0181 62.9037L83.7211 60.4844L83.2373 58.5439L73.5343 60.9631L74.0181 62.9037ZM83.7211 60.4844C84.1671 60.3732 84.5418 60.4357 84.9127 60.6717L85.9864 58.9844C85.1452 58.4491 84.2062 58.3023 83.2373 58.5439L83.7211 60.4844ZM84.9567 60.6981C85.3392 60.9148 85.5703 61.2163 85.6815 61.6624L87.6221 61.1785C87.3805 60.2096 86.8101 59.4494 85.9425 58.958L84.9567 60.6981ZM85.6815 61.6624C85.7927 62.1084 85.7302 62.4831 85.4942 62.854L87.1816 63.9277C87.7169 63.0864 87.8637 62.1475 87.6221 61.1785L85.6815 61.6624ZM85.4678 62.8979C85.2511 63.2805 84.9496 63.5115 84.5036 63.6227L84.9874 65.5633C85.9564 65.3217 86.7165 64.7513 87.208 63.8837L85.4678 62.8979ZM84.5036 63.6227L74.9522 66.0042L75.4361 67.9448L84.9874 65.5633L84.5036 63.6227ZM74.9661 66.0008C73.3725 66.374 72.0225 66.2461 70.8604 65.6903L69.9975 67.4946C71.6388 68.2796 73.4656 68.4063 75.4222 67.9481L74.9661 66.0008ZM70.8816 65.7008C69.6166 65.0587 68.6487 64.2586 67.9457 63.3127L66.3405 64.5058C67.2531 65.7337 68.4757 66.7224 69.9763 67.4842L70.8816 65.7008ZM67.9603 63.3329C67.242 62.3144 66.7362 61.2114 66.4388 60.0188L64.4982 60.5026C64.8561 61.9378 65.4666 63.2672 66.3259 64.4856L67.9603 63.3329ZM66.4388 60.0188C66.157 58.8886 66.1052 57.7208 66.2892 56.5071L64.3118 56.2074C64.0898 57.6715 64.15 59.106 64.4982 60.5026L66.4388 60.0188ZM66.2902 56.5C66.4614 55.313 66.9388 54.1586 67.7528 53.0308L66.1311 51.8603C65.1498 53.2199 64.5329 54.6733 64.3107 56.2146L66.2902 56.5ZM67.7602 53.0203C68.47 52.0099 69.7746 51.1546 71.8609 50.5583L71.3112 48.6353C68.9881 49.2993 67.1966 50.3432 66.1237 51.8707L67.7602 53.0203ZM71.828 50.5671L87.7469 46.598L87.263 44.6574L71.3441 48.6265L71.828 50.5671ZM87.7469 46.598C88.2098 46.4826 88.6126 46.5387 89.0109 46.7644L89.9967 45.0242C89.1449 44.5416 88.2151 44.4201 87.263 44.6574L87.7469 46.598ZM89.0345 46.7773C89.4031 46.9732 89.6432 47.263 89.7734 47.7157L91.6955 47.1629C91.4224 46.2133 90.8421 45.473 89.9731 45.0112L89.0345 46.7773ZM89.7642 47.6812L92.9394 60.4164L94.88 59.9325L91.7048 47.1974L89.7642 47.6812ZM92.9394 60.4164C93.0465 60.8462 92.983 61.2163 92.7275 61.5971L94.3883 62.7115C94.9546 61.8675 95.1256 60.9178 94.88 59.9325L92.9394 60.4164ZM92.729 61.5949C92.4812 61.962 92.1453 62.2006 91.6668 62.3199L92.1506 64.2604C93.0871 64.0269 93.8506 63.5082 94.3868 62.7137L92.729 61.5949ZM91.7482 62.3031C91.135 62.4028 90.7416 62.3138 90.4775 62.1578C90.2132 62.0018 89.9445 61.6996 89.7343 61.1129L87.8515 61.7875C88.1709 62.6791 88.6863 63.4227 89.4606 63.88C90.2351 64.3374 91.1348 64.4291 92.0692 64.2772L91.7482 62.3031ZM116.554 43.7797L116.349 42.8008L116.33 42.8048L116.312 42.8094L116.554 43.7797ZM103.288 47.0873L103.046 46.117L103.02 46.1233L102.995 46.131L103.288 47.0873ZM102.198 48.0434L103.072 48.5286L103.08 48.5146L103.087 48.5003L102.198 48.0434ZM101.742 49.6064L100.745 49.529L100.744 49.5441L100.743 49.5593L101.742 49.6064ZM102.517 52.7143L101.65 53.2135L101.665 53.2388L101.681 53.2632L102.517 52.7143ZM103.653 53.8804L103.082 54.7014L103.095 54.7105L103.109 54.7193L103.653 53.8804ZM116.719 52.0317L116.182 52.8754L116.204 52.8892L116.226 52.9018L116.719 52.0317ZM117.607 55.5945L116.763 55.0577L116.75 55.0793L116.737 55.1016L117.607 55.5945ZM106.463 59.1781L106.691 60.1518L106.698 60.1502L106.705 60.1484L106.463 59.1781ZM101.698 58.7962L101.246 59.6879L101.256 59.6932L101.267 59.6983L101.698 58.7962ZM98.4124 56.1129L97.5952 56.6893L97.6024 56.6995L97.6098 56.7094L98.4124 56.1129ZM96.5698 48.561L97.5585 48.7108L97.5595 48.7036L96.5698 48.561ZM98.2112 44.6492L99.0222 45.2345L99.0295 45.224L98.2112 44.6492ZM102.855 41.8005L102.613 40.8302L102.597 40.8343L102.58 40.839L102.855 41.8005ZM120.773 38.098L120.28 38.9681L120.292 38.9747L120.304 38.981L120.773 38.098ZM122.004 39.643L122.974 39.4011L122.97 39.3838L122.965 39.3666L122.004 39.643ZM125.583 57.5512L126.581 57.6142L126.582 57.6073L125.583 57.5512ZM124.083 62.1926L123.244 61.6489L123.238 61.6584L123.232 61.6679L124.083 62.1926ZM120.178 65.0986L120.42 66.0689L120.448 66.062L120.475 66.0535L120.178 65.0986ZM107.064 68.3684L107.27 69.3469L107.288 69.3431L107.306 69.3387L107.064 68.3684ZM103.986 66.519L103.016 66.7609L103.02 66.7789L103.025 66.7966L103.986 66.519ZM104.215 64.5296L103.345 64.0367L103.338 64.0484L103.332 64.0603L104.215 64.5296ZM105.798 63.2895L105.556 62.3192L105.538 62.3235L105.521 62.3284L105.798 63.2895ZM117.623 60.341L117.865 61.3113L117.891 61.305L117.916 61.2973L117.623 60.341ZM118.755 44.2776C118.636 43.7994 118.378 43.3068 117.874 43.0036C117.377 42.7052 116.825 42.7014 116.349 42.8008L116.758 44.7586C116.802 44.7494 116.836 44.7451 116.861 44.7434C116.885 44.7416 116.899 44.7426 116.903 44.743C116.908 44.7434 116.903 44.7433 116.891 44.7395C116.878 44.7356 116.862 44.7288 116.844 44.7179C116.826 44.707 116.81 44.6947 116.798 44.6828C116.786 44.6711 116.781 44.6626 116.779 44.6609C116.778 44.6587 116.795 44.6852 116.814 44.7614L118.755 44.2776ZM116.312 42.8094L103.046 46.117L103.53 48.0575L116.795 44.75L116.312 42.8094ZM102.995 46.131C102.232 46.3646 101.669 46.8848 101.308 47.5866L103.087 48.5003C103.233 48.2171 103.396 48.0998 103.58 48.0435L102.995 46.131ZM101.323 47.5582C100.989 48.1607 100.8 48.8226 100.745 49.529L102.739 49.6837C102.773 49.2407 102.888 48.8606 103.072 48.5286L101.323 47.5582ZM100.743 49.5593C100.713 50.2002 100.776 50.8345 100.932 51.459L102.872 50.9751C102.763 50.5384 102.72 50.0988 102.741 49.6535L100.743 49.5593ZM100.932 51.459C101.082 52.0624 101.324 52.6475 101.65 53.2135L103.383 52.2152C103.142 51.7955 102.974 51.3825 102.872 50.9751L100.932 51.459ZM101.681 53.2632C102.054 53.8317 102.523 54.3126 103.082 54.7014L104.224 53.0594C103.874 52.816 103.585 52.5196 103.353 52.1655L101.681 53.2632ZM103.109 54.7193C103.769 55.1475 104.515 55.2999 105.287 55.1074L104.804 53.1668C104.616 53.2136 104.434 53.1949 104.197 53.0415L103.109 54.7193ZM105.287 55.1074L114.99 52.6881L114.507 50.7475L104.804 53.1668L105.287 55.1074ZM114.99 52.6881C115.436 52.5769 115.811 52.6394 116.182 52.8754L117.256 51.188C116.414 50.6527 115.476 50.506 114.507 50.7475L114.99 52.6881ZM116.226 52.9018C116.609 53.1185 116.84 53.42 116.951 53.8661L118.891 53.3822C118.65 52.4132 118.079 51.6531 117.212 51.1616L116.226 52.9018ZM116.951 53.8661C117.062 54.3121 117 54.6868 116.763 55.0577L118.451 56.1314C118.986 55.2901 119.133 54.3512 118.891 53.3822L116.951 53.8661ZM116.737 55.1016C116.52 55.4842 116.219 55.7152 115.773 55.8264L116.257 57.767C117.226 57.5254 117.986 56.955 118.477 56.0874L116.737 55.1016ZM115.773 55.8264L106.222 58.2079L106.705 60.1484L116.257 57.767L115.773 55.8264ZM106.235 58.2045C104.642 58.5777 103.292 58.4498 102.13 57.894L101.267 59.6983C102.908 60.4833 104.735 60.61 106.691 60.1518L106.235 58.2045ZM102.151 57.9045C100.886 57.2623 99.918 56.4623 99.215 55.5164L97.6098 56.7094C98.5224 57.9373 99.745 58.9261 101.246 59.6879L102.151 57.9045ZM99.2296 55.5366C98.5113 54.5181 98.0055 53.4151 97.7081 52.2224L95.7675 52.7063C96.1254 54.1415 96.7359 55.4709 97.5952 56.6893L99.2296 55.5366ZM97.7081 52.2224C97.4263 51.0923 97.3745 49.9245 97.5585 48.7108L95.5811 48.4111C95.3591 49.8752 95.4193 51.3097 95.7675 52.7063L97.7081 52.2224ZM97.5595 48.7036C97.7307 47.5167 98.2081 46.3622 99.0221 45.2345L97.4004 44.064C96.4191 45.4236 95.8022 46.877 95.58 48.4183L97.5595 48.7036ZM99.0295 45.224C99.7393 44.2136 101.044 43.3583 103.13 42.7619L102.58 40.839C100.257 41.503 98.4659 42.5469 97.393 44.0744L99.0295 45.224ZM103.097 42.7708L119.016 38.8017L118.532 36.8611L102.613 40.8302L103.097 42.7708ZM119.016 38.8017C119.479 38.6863 119.882 38.7424 120.28 38.9681L121.266 37.2279C120.414 36.7453 119.484 36.6238 118.532 36.8611L119.016 38.8017ZM120.304 38.981C120.672 39.1769 120.912 39.4667 121.043 39.9194L122.965 39.3666C122.692 38.417 122.111 37.6767 121.242 37.2149L120.304 38.981ZM121.033 39.8849L124.02 51.862L125.96 51.3782L122.974 39.4011L121.033 39.8849ZM124.02 51.862C124.501 53.7935 124.687 55.67 124.585 57.4951L126.582 57.6073C126.696 55.5672 126.487 53.4896 125.96 51.3782L124.02 51.862ZM124.585 57.4882C124.487 59.0438 124.037 60.4238 123.244 61.6489L124.923 62.7362C125.912 61.2087 126.462 59.4945 126.581 57.6142L124.585 57.4882ZM123.232 61.6679C122.514 62.8337 121.422 63.6646 119.881 64.1437L120.475 66.0535C122.421 65.4485 123.933 64.342 124.935 62.7172L123.232 61.6679ZM119.936 64.1283L106.822 67.3981L107.306 69.3387L120.42 66.0689L119.936 64.1283ZM106.858 67.3898C106.415 67.483 106.029 67.4174 105.646 67.1878L104.616 68.9022C105.434 69.3934 106.336 69.5434 107.27 69.3469L106.858 67.3898ZM105.646 67.1878C105.309 66.9849 105.077 66.6911 104.947 66.2413L103.025 66.7966C103.286 67.6987 103.818 68.4223 104.616 68.9022L105.646 67.1878ZM104.956 66.277C104.837 65.7986 104.89 65.3899 105.098 64.9988L103.332 64.0603C102.882 64.9067 102.782 65.8244 103.016 66.7609L104.956 66.277ZM105.085 65.0225C105.308 64.6291 105.62 64.3811 106.074 64.2505L105.521 62.3284C104.573 62.6012 103.83 63.1799 103.345 64.0367L105.085 65.0225ZM106.04 64.2598L117.865 61.3113L117.381 59.3707L105.556 62.3192L106.04 64.2598ZM117.916 61.2973C119.103 60.9341 120.022 60.2046 120.613 59.1282L118.861 58.1648C118.529 58.7679 118.039 59.1681 117.331 59.3848L117.916 61.2973ZM120.613 59.1282C121.164 58.1259 121.413 57.0443 121.353 55.904L119.356 56.0086C119.396 56.7757 119.233 57.4876 118.861 58.1648L120.613 59.1282ZM121.353 55.904C121.298 54.8614 121.078 53.5957 120.711 52.1233L118.771 52.6072C119.122 54.0154 119.311 55.1437 119.356 56.0086L121.353 55.904ZM120.711 52.1233L118.755 44.2776L116.814 44.7614L118.771 52.6072L120.711 52.1233ZM133.525 52.914L133.731 53.8926L133.749 53.8887L133.767 53.8843L133.525 52.914ZM131.602 52.6285L131.087 53.4857L131.099 53.4927L131.111 53.4993L131.602 52.6285ZM130.409 51.074L129.439 51.316L129.444 51.3339L129.449 51.3517L130.409 51.074ZM128.056 41.6364L127.083 41.8646L127.086 41.8783L128.056 41.6364ZM127.548 36.3685L126.55 36.3055L126.55 36.3127L126.549 36.32L127.548 36.3685ZM129.01 31.7366L129.855 32.271L129.856 32.2706L129.01 31.7366ZM132.953 28.8211L132.711 27.8508L132.684 27.8577L132.656 27.8662L132.953 28.8211ZM147.583 25.1734L147.378 24.1948L147.359 24.1986L147.341 24.2031L147.583 25.1734ZM149.478 25.5062L148.94 26.3491L148.963 26.3636L148.986 26.3769L149.478 25.5062ZM150.661 27.0228L151.632 26.7808L151.627 26.7629L151.622 26.7451L150.661 27.0228ZM150.395 29.0216L149.525 28.5287L149.518 28.5404L149.512 28.5523L150.395 29.0216ZM148.85 30.2523L149.092 31.2226L149.109 31.2182L149.126 31.2133L148.85 30.2523ZM135.508 33.5787L135.266 32.6084L135.241 32.6148L135.216 32.6225L135.508 33.5787ZM132.767 37.9255L131.768 37.9725L131.769 37.9838L131.77 37.9952L132.767 37.9255ZM133.287 40.8155L134.257 40.5735L134.254 40.5617L134.251 40.55L133.287 40.8155ZM135.526 49.7983L136.505 49.5911L136.501 49.5737L136.497 49.5564L135.526 49.7983ZM135.174 51.7781L136.003 52.3375L136.011 52.3263L136.018 52.315L135.174 51.7781ZM135.75 39.8791L136.594 40.4159L136.608 40.3943L136.621 40.372L135.75 39.8791ZM152.124 35.7967L151.587 36.6403L151.609 36.6541L151.631 36.6667L152.124 35.7967ZM153.06 39.3879L153.904 39.9248L153.917 39.9031L153.93 39.8808L153.06 39.3879ZM136.61 43.4892L136.073 44.3329L136.095 44.3467L136.117 44.3593L136.61 43.4892ZM133.319 51.9354C132.86 52.032 132.468 51.9692 132.094 51.7578L131.111 53.4993C131.923 53.9581 132.813 54.0857 133.731 53.8926L133.319 51.9354ZM132.117 51.7714C131.735 51.5418 131.496 51.2313 131.37 50.7964L129.449 51.3517C129.714 52.2686 130.27 52.9945 131.087 53.4857L132.117 51.7714ZM131.38 50.8321L129.027 41.3945L127.086 41.8783L129.439 51.316L131.38 50.8321ZM129.03 41.4082C128.628 39.6913 128.469 38.0286 128.547 36.417L126.549 36.32C126.461 38.1316 126.641 39.9808 127.083 41.8646L129.03 41.4082ZM128.546 36.4315C128.645 34.8704 129.084 33.4904 129.855 32.271L128.165 31.2022C127.203 32.7229 126.668 34.4309 126.55 36.3055L128.546 36.4315ZM129.856 32.2706C130.601 31.0909 131.709 30.2552 133.25 29.776L132.656 27.8662C130.71 28.4712 129.19 29.5791 128.165 31.2027L129.856 32.2706ZM133.195 29.7914L147.825 26.1437L147.341 24.2031L132.711 27.8508L133.195 29.7914ZM147.789 26.152C148.231 26.0591 148.594 26.1282 148.94 26.3491L150.016 24.6632C149.213 24.1507 148.313 23.998 147.378 24.1948L147.789 26.152ZM148.986 26.3769C149.344 26.5788 149.575 26.8669 149.701 27.3004L151.622 26.7451C151.357 25.8267 150.799 25.1038 149.97 24.6354L148.986 26.3769ZM149.691 27.2647C149.806 27.7276 149.75 28.1304 149.525 28.5287L151.265 29.5145C151.747 28.6627 151.869 27.7329 151.632 26.7808L149.691 27.2647ZM149.512 28.5523C149.316 28.9209 149.026 29.161 148.573 29.2912L149.126 31.2133C150.076 30.9402 150.816 30.3599 151.278 29.4909L149.512 28.5523ZM148.608 29.282L135.266 32.6084L135.75 34.549L149.092 31.2226L148.608 29.282ZM135.216 32.6225C134.028 32.9857 133.11 33.7151 132.518 34.7915L134.271 35.7549C134.602 35.1518 135.093 34.7516 135.801 34.5349L135.216 32.6225ZM132.518 34.7915C131.97 35.7875 131.716 36.854 131.768 37.9725L133.766 37.8786C133.732 37.1402 133.895 36.4384 134.271 35.7549L132.518 34.7915ZM131.77 37.9952C131.838 38.9693 132.024 39.9988 132.322 41.081L134.251 40.55C133.982 39.5727 133.822 38.6756 133.765 37.8559L131.77 37.9952ZM132.316 41.0574L134.556 50.0402L136.497 49.5564L134.257 40.5735L132.316 41.0574ZM134.548 50.0054C134.646 50.4676 134.574 50.8598 134.331 51.2413L136.018 52.315C136.547 51.4842 136.709 50.5565 136.505 49.5911L134.548 50.0054ZM134.346 51.2188C134.098 51.5859 133.762 51.8244 133.283 51.9437L133.767 53.8843C134.704 53.6508 135.467 53.1321 136.003 52.3375L134.346 51.2188ZM136.407 41.6076C136.296 41.1615 136.358 40.7869 136.594 40.4159L134.907 39.3422C134.371 40.1835 134.225 41.1225 134.466 42.0914L136.407 41.6076ZM136.621 40.372C136.837 39.9894 137.139 39.7584 137.585 39.6472L137.101 37.7066C136.132 37.9482 135.372 38.5186 134.88 39.3862L136.621 40.372ZM137.585 39.6472L150.396 36.4531L149.912 34.5125L137.101 37.7066L137.585 39.6472ZM150.396 36.4531C150.842 36.3418 151.216 36.4043 151.587 36.6403L152.661 34.953C151.82 34.4177 150.881 34.2709 149.912 34.5125L150.396 36.4531ZM151.631 36.6667C152.014 36.8835 152.245 37.1849 152.356 37.631L154.297 37.1471C154.055 36.1782 153.485 35.418 152.617 34.9266L151.631 36.6667ZM152.356 37.631C152.472 38.0939 152.415 38.4967 152.19 38.895L153.93 39.8808C154.412 39.029 154.534 38.0992 154.297 37.1471L152.356 37.631ZM152.216 38.8511C151.97 39.2373 151.641 39.4759 151.178 39.5914L151.662 41.532C152.614 41.2946 153.378 40.7507 153.904 39.9248L152.216 38.8511ZM151.178 39.5914L138.367 42.7855L138.851 44.7261L151.662 41.532L151.178 39.5914ZM138.367 42.7855C137.904 42.9009 137.502 42.8448 137.103 42.6192L136.117 44.3593C136.969 44.8419 137.899 44.9635 138.851 44.7261L138.367 42.7855ZM137.147 42.6456C136.761 42.3998 136.522 42.0705 136.407 41.6076L134.466 42.0914C134.704 43.0435 135.248 43.8074 136.073 44.3329L137.147 42.6456ZM166.917 44.1053L167.126 45.0833L167.143 45.0797L167.159 45.0756L166.917 44.1053ZM161.489 43.8082L161.036 44.6999L161.048 44.7056L161.489 43.8082ZM158.203 41.1249L157.396 41.7156L157.401 41.7214L158.203 41.1249ZM156.285 33.5918L155.295 33.4491L155.293 33.4597L156.285 33.5918ZM157.926 29.6801L158.737 30.2653L158.738 30.2637L157.926 29.6801ZM161.945 27.0678L161.703 26.0975L161.696 26.0992L161.689 26.1011L161.945 27.0678ZM178.309 23.7528L177.794 24.6099L177.816 24.6235L177.839 24.6358L178.309 23.7528ZM179.159 27.1639L180.002 27.702L180.003 27.7008L179.159 27.1639ZM162.036 32.7618L161.213 32.1943L161.204 32.2067L161.196 32.2193L162.036 32.7618ZM161.495 34.4667L160.498 34.3894L160.496 34.4083L160.496 34.4273L161.495 34.4667ZM162.402 38.1054L161.538 38.6093L161.548 38.6257L161.558 38.6417L162.402 38.1054ZM163.68 39.3567L163.193 40.2301L163.221 40.2457L163.25 40.2595L163.68 39.3567ZM165.3 39.5567L165.498 40.537L165.52 40.5325L165.542 40.527L165.3 39.5567ZM181.427 36.2605L180.935 37.1312L180.947 37.1375L180.958 37.1435L181.427 36.2605ZM182.249 39.558L181.42 38.9986L181.413 39.0092L181.406 39.02L182.249 39.558ZM180.226 32.8964L179.422 32.3012L179.415 32.3113L179.408 32.3216L180.226 32.8964ZM164.914 36.7143L164.457 37.6038L164.473 37.6121L164.489 37.6199L164.914 36.7143ZM164.299 34.2506L163.5 33.6501L163.489 33.6647L163.478 33.6797L164.299 34.2506ZM179.659 30.4612L179.202 31.3508L179.219 31.3591L179.235 31.3668L179.659 30.4612ZM166.709 43.1273C164.582 43.5813 163.027 43.4499 161.93 42.9107L161.048 44.7056C162.704 45.5198 164.768 45.5865 167.126 45.0833L166.709 43.1273ZM161.942 42.9165C160.677 42.2743 159.709 41.4743 159.006 40.5284L157.401 41.7214C158.313 42.9493 159.536 43.9381 161.036 44.6998L161.942 42.9165ZM159.01 40.5343C158.268 39.5205 157.762 38.4501 157.48 37.3197L155.539 37.8035C155.887 39.1999 156.51 40.5051 157.396 41.7156L159.01 40.5343ZM157.48 37.3197C157.183 36.1271 157.115 34.9307 157.276 33.724L155.293 33.4597C155.099 34.9181 155.181 36.3682 155.539 37.8035L157.48 37.3197ZM157.274 33.7345C157.446 32.5476 157.923 31.3931 158.737 30.2653L157.115 29.0948C156.134 30.4544 155.517 31.9078 155.295 33.4491L157.274 33.7345ZM158.738 30.2637C159.498 29.2064 160.624 28.4515 162.201 28.0345L161.689 26.1011C159.74 26.6166 158.187 27.6033 157.114 29.0964L158.738 30.2637ZM162.187 28.0381L176.59 24.4471L176.106 22.5065L161.703 26.0975L162.187 28.0381ZM176.59 24.4471C177.052 24.3318 177.432 24.3924 177.794 24.6099L178.824 22.8956C177.986 22.3923 177.059 22.2689 176.106 22.5065L176.59 24.4471ZM177.839 24.6358C178.218 24.8369 178.42 25.1022 178.512 25.4734L180.453 24.9895C180.218 24.0468 179.637 23.3263 178.778 22.8697L177.839 24.6358ZM178.512 25.4734C178.614 25.8832 178.558 26.2466 178.315 26.6271L180.003 27.7008C180.532 26.8691 180.691 25.9442 180.453 24.9895L178.512 25.4734ZM178.316 26.6259C178.097 26.9688 177.784 27.2008 177.306 27.32L177.79 29.2606C178.726 29.0271 179.488 28.5082 180.002 27.702L178.316 26.6259ZM177.306 27.32L163.13 30.8544L163.614 32.795L177.79 29.2606L177.306 27.32ZM163.13 30.8544C162.33 31.0539 161.681 31.5142 161.213 32.1943L162.859 33.3293C163.061 33.037 163.303 32.8727 163.614 32.795L163.13 30.8544ZM161.196 32.2193C160.783 32.8589 160.56 33.5925 160.498 34.3894L162.492 34.5441C162.532 34.0273 162.669 33.6243 162.876 33.3042L161.196 32.2193ZM160.496 34.4273C160.467 35.1643 160.534 35.8755 160.703 36.5562L162.644 36.0724C162.524 35.5908 162.472 35.0702 162.494 34.5062L160.496 34.4273ZM160.703 36.5562C160.884 37.2799 161.163 37.9651 161.538 38.6093L163.266 37.6014C162.985 37.1209 162.779 36.6121 162.644 36.0724L160.703 36.5562ZM161.558 38.6417C161.987 39.3163 162.528 39.8592 163.193 40.2301L164.167 38.4834C163.835 38.2978 163.524 38.0065 163.246 37.569L161.558 38.6417ZM163.25 40.2595C163.963 40.5992 164.724 40.6931 165.498 40.537L165.103 38.5764C164.753 38.647 164.433 38.6075 164.11 38.4539L163.25 40.2595ZM165.542 40.527L179.718 36.9927L179.234 35.0521L165.058 38.5864L165.542 40.527ZM179.718 36.9927C180.196 36.8734 180.581 36.9312 180.935 37.1312L181.919 35.3897C181.086 34.9194 180.17 34.8185 179.234 35.0521L179.718 36.9927ZM180.958 37.1435C181.348 37.3507 181.538 37.6093 181.621 37.9432L183.562 37.4593C183.33 36.5298 182.744 35.8279 181.896 35.3774L180.958 37.1435ZM181.621 37.9432C181.714 38.3144 181.66 38.6434 181.42 38.9986L183.078 40.1173C183.622 39.3108 183.797 38.4021 183.562 37.4593L181.621 37.9432ZM181.406 39.02C181.188 39.3628 180.874 39.5948 180.396 39.7141L180.88 41.6546C181.817 41.4211 182.578 40.9022 183.092 40.096L181.406 39.02ZM180.396 39.7141L166.675 43.135L167.159 45.0756L180.88 41.6546L180.396 39.7141ZM179.588 31.7269C179.624 31.8692 179.618 32.0378 179.422 32.3012L181.03 33.4916C181.517 32.8333 181.733 32.061 181.529 31.2431L179.588 31.7269ZM179.408 32.3216C179.271 32.517 179.054 32.6815 178.667 32.778L179.151 34.7186C179.926 34.5252 180.587 34.1218 181.044 33.4712L179.408 32.3216ZM178.667 32.778L166.273 35.8681L166.757 37.8087L179.151 34.7186L178.667 32.778ZM166.273 35.8681C165.887 35.9643 165.592 35.9276 165.338 35.8086L164.489 37.6199C165.208 37.9563 165.98 38.0024 166.757 37.8087L166.273 35.8681ZM165.37 35.8247C165.1 35.686 165.007 35.5379 164.966 35.3728L163.025 35.8566C163.223 36.6517 163.742 37.2366 164.457 37.6038L165.37 35.8247ZM164.966 35.3728C164.935 35.249 164.936 35.0865 165.12 34.8215L163.478 33.6797C163.03 34.3239 162.829 35.0707 163.025 35.8566L164.966 35.3728ZM165.099 34.8511C165.267 34.6268 165.511 34.4558 165.897 34.3596L165.413 32.419C164.636 32.6127 163.976 33.0158 163.5 33.6501L165.099 34.8511ZM165.897 34.3596L178.291 31.2695L177.807 29.3289L165.413 32.419L165.897 34.3596ZM178.291 31.2695C178.658 31.178 178.944 31.2179 179.202 31.3508L180.116 29.5717C179.39 29.1987 178.602 29.1305 177.807 29.3289L178.291 31.2695ZM179.235 31.3668C179.493 31.4877 179.559 31.6089 179.588 31.7269L181.529 31.2431C181.331 30.4515 180.798 29.8902 180.083 29.5556L179.235 31.3668ZM195.306 37.0272L195.515 38.0052L195.532 38.0016L195.548 37.9975L195.306 37.0272ZM189.878 36.73L189.425 37.6218L189.437 37.6275L189.878 36.73ZM186.592 34.0468L185.785 34.6375L185.789 34.6433L186.592 34.0468ZM184.673 26.5137L183.684 26.371L183.682 26.3816L184.673 26.5137ZM186.315 22.602L187.126 23.1872L187.127 23.1856L186.315 22.602ZM190.334 19.9897L190.092 19.0194L190.085 19.0211L190.078 19.0229L190.334 19.9897ZM206.697 16.6746L206.182 17.5318L206.205 17.5454L206.228 17.5577L206.697 16.6746ZM207.548 20.0858L208.391 20.6239L208.392 20.6227L207.548 20.0858ZM190.425 25.6836L189.601 25.1161L189.593 25.1286L189.585 25.1412L190.425 25.6836ZM189.884 27.3886L188.887 27.3113L188.885 27.3302L188.884 27.3492L189.884 27.3886ZM190.791 31.0272L189.927 31.5312L189.937 31.5476L189.947 31.5636L190.791 31.0272ZM192.069 32.2786L191.582 33.152L191.61 33.1676L191.639 33.1814L192.069 32.2786ZM193.689 32.4786L193.887 33.4589L193.909 33.4544L193.931 33.4489L193.689 32.4786ZM209.816 29.1824L209.324 30.0531L209.335 30.0594L209.347 30.0654L209.816 29.1824ZM210.638 32.4799L209.809 31.9205L209.802 31.9311L209.795 31.9418L210.638 32.4799ZM208.615 25.8183L207.811 25.2231L207.804 25.2332L207.796 25.2435L208.615 25.8183ZM193.302 29.6361L192.845 30.5257L192.862 30.534L192.878 30.5418L193.302 29.6361ZM192.688 27.1725L191.888 26.572L191.877 26.5866L191.867 26.6016L192.688 27.1725ZM208.048 23.3831L207.591 24.2727L207.607 24.281L207.624 24.2887L208.048 23.3831ZM195.097 36.0492C192.97 36.5031 191.416 36.3718 190.319 35.8326L189.437 37.6275C191.093 38.4417 193.157 38.5084 195.515 38.0052L195.097 36.0492ZM190.33 35.8384C189.065 35.1962 188.097 34.3961 187.395 33.4503L185.789 34.6433C186.702 35.8712 187.924 36.86 189.425 37.6217L190.33 35.8384ZM187.399 33.4562C186.657 32.4424 186.15 31.372 185.869 30.2416L183.928 30.7254C184.276 32.1218 184.899 33.427 185.785 34.6375L187.399 33.4562ZM185.869 30.2416C185.571 29.049 185.504 27.8526 185.665 26.6459L183.682 26.3816C183.488 27.84 183.57 29.2901 183.928 30.7254L185.869 30.2416ZM185.663 26.6564C185.834 25.4694 186.312 24.315 187.126 23.1872L185.504 22.0167C184.523 23.3763 183.906 24.8297 183.684 26.371L185.663 26.6564ZM187.127 23.1856C187.887 22.1283 189.013 21.3734 190.589 20.9564L190.078 19.0229C188.129 19.5385 186.576 20.5252 185.503 22.0183L187.127 23.1856ZM190.575 20.96L204.978 17.369L204.494 15.4284L190.092 19.0194L190.575 20.96ZM204.978 17.369C205.441 17.2537 205.82 17.3143 206.182 17.5318L207.212 15.8175C206.375 15.3142 205.447 15.1908 204.494 15.4284L204.978 17.369ZM206.228 17.5577C206.606 17.7588 206.808 18.0241 206.901 18.3953L208.841 17.9114C208.606 16.9687 208.026 16.2482 207.167 15.7916L206.228 17.5577ZM206.901 18.3953C207.003 18.8051 206.946 19.1685 206.704 19.549L208.392 20.6227C208.921 19.791 209.08 18.8661 208.841 17.9114L206.901 18.3953ZM206.705 19.5478C206.486 19.8907 206.173 20.1227 205.695 20.2419L206.178 22.1825C207.115 21.949 207.876 21.43 208.391 20.6239L206.705 19.5478ZM205.695 20.2419L191.519 23.7763L192.003 25.7169L206.178 22.1825L205.695 20.2419ZM191.519 23.7763C190.719 23.9758 190.07 24.4361 189.601 25.1161L191.248 26.2512C191.449 25.9589 191.691 25.7946 192.003 25.7169L191.519 23.7763ZM189.585 25.1412C189.172 25.7808 188.948 26.5144 188.887 27.3113L190.881 27.466C190.921 26.9492 191.058 26.5462 191.265 26.2261L189.585 25.1412ZM188.884 27.3492C188.855 28.0862 188.922 28.7974 189.092 29.4781L191.033 28.9943C190.913 28.5127 190.861 27.9921 190.883 27.4281L188.884 27.3492ZM189.092 29.4781C189.273 30.2018 189.551 30.887 189.927 31.5312L191.655 30.5233C191.374 30.0428 191.167 29.534 191.033 28.9943L189.092 29.4781ZM189.947 31.5636C190.375 32.2382 190.917 32.7811 191.582 33.152L192.556 31.4053C192.223 31.2197 191.913 30.9284 191.635 30.4909L189.947 31.5636ZM191.639 33.1814C192.352 33.5211 193.112 33.615 193.887 33.4589L193.491 31.4983C193.141 31.5689 192.822 31.5294 192.499 31.3758L191.639 33.1814ZM193.931 33.4489L208.106 29.9146L207.622 27.974L193.447 31.5083L193.931 33.4489ZM208.106 29.9146C208.585 29.7953 208.97 29.8531 209.324 30.0531L210.308 28.3116C209.475 27.8413 208.559 27.7404 207.622 27.974L208.106 29.9146ZM209.347 30.0654C209.736 30.2726 209.927 30.5312 210.01 30.8651L211.951 30.3812C211.719 29.4517 211.133 28.7498 210.285 28.2993L209.347 30.0654ZM210.01 30.8651C210.103 31.2363 210.049 31.5653 209.809 31.9205L211.467 33.0392C212.011 32.2327 212.186 31.324 211.951 30.3812L210.01 30.8651ZM209.795 31.9418C209.576 32.2847 209.263 32.5167 208.785 32.636L209.269 34.5765C210.205 34.343 210.966 33.8241 211.481 33.0179L209.795 31.9418ZM208.785 32.636L195.064 36.0569L195.548 37.9975L209.269 34.5765L208.785 32.636ZM207.977 24.6488C208.012 24.7911 208.006 24.9597 207.811 25.2231L209.418 26.4135C209.906 25.7552 210.121 24.9829 209.918 24.165L207.977 24.6488ZM207.796 25.2435C207.659 25.4389 207.442 25.6034 207.055 25.6999L207.539 27.6404C208.315 27.4471 208.976 27.0437 209.433 26.3931L207.796 25.2435ZM207.055 25.6999L194.661 28.79L195.145 30.7306L207.539 27.6404L207.055 25.6999ZM194.661 28.79C194.276 28.8862 193.98 28.8495 193.726 28.7305L192.878 30.5418C193.597 30.8782 194.369 30.9243 195.145 30.7306L194.661 28.79ZM193.759 28.7466C193.489 28.6079 193.395 28.4598 193.354 28.2947L191.414 28.7785C191.612 29.5736 192.131 30.1585 192.845 30.5257L193.759 28.7466ZM193.354 28.2947C193.323 28.1709 193.325 28.0084 193.509 27.7434L191.867 26.6016C191.419 27.2458 191.218 27.9926 191.414 28.7785L193.354 28.2947ZM193.488 27.773C193.656 27.5487 193.9 27.3777 194.285 27.2815L193.801 25.3409C193.025 25.5346 192.365 25.9377 191.888 26.572L193.488 27.773ZM194.285 27.2815L206.679 24.1913L206.195 22.2508L193.801 25.3409L194.285 27.2815ZM206.679 24.1913C207.046 24.0999 207.332 24.1398 207.591 24.2727L208.505 22.4936C207.778 22.1206 206.991 22.0524 206.195 22.2508L206.679 24.1913ZM207.624 24.2887C207.882 24.4096 207.948 24.5308 207.977 24.6488L209.918 24.165C209.72 23.3734 209.186 22.812 208.472 22.4775L207.624 24.2887ZM231.924 6.11757L230.934 6.26174L230.942 6.31109L230.954 6.35949L231.924 6.11757ZM233.811 3.03022L233.569 2.05992L233.529 2.06999L233.49 2.08337L233.811 3.03022ZM235.81 3.29676L235.317 4.16685L235.339 4.17945L235.362 4.1909L235.81 3.29676ZM241.539 22.8832L242.517 22.6761L242.514 22.6586L242.509 22.6413L241.539 22.8832ZM241.187 24.8631L242.016 25.4225L242.024 25.4113L242.031 25.3999L241.187 24.8631ZM223.619 29.968L223.828 30.9459L223.844 30.9424L223.861 30.9383L223.619 29.968ZM218.191 29.6708L217.738 30.5626L217.749 30.5683L218.191 29.6708ZM214.905 26.9876L214.098 27.5783L214.102 27.5841L214.905 26.9876ZM212.986 19.4545L211.997 19.3118L211.995 19.3223L212.986 19.4545ZM214.628 15.5428L215.439 16.128L215.44 16.1264L214.628 15.5428ZM218.646 12.9305L218.405 11.9602L218.398 11.9619L218.391 11.9637L218.646 12.9305ZM230.168 10.863L229.631 11.7066L229.653 11.7204L229.675 11.733L230.168 10.863ZM231.066 14.4637L230.209 13.9486L231.066 14.4637ZM218.662 18.9655L219.536 19.4507L219.544 19.4366L219.551 19.4223L218.662 18.9655ZM218.206 20.5284L217.209 20.4511L217.208 20.4662L217.207 20.4813L218.206 20.5284ZM218.981 23.6364L218.114 24.1355L218.129 24.1608L218.145 24.1852L218.981 23.6364ZM220.117 24.8024L219.546 25.6234L219.559 25.6326L219.573 25.6413L220.117 24.8024ZM221.519 25.097L221.709 26.0786L221.735 26.0736L221.761 26.0673L221.519 25.097ZM234.785 21.7895L235.027 22.7598L235.045 22.7551L235.064 22.7497L234.785 21.7895ZM232.913 5.97339C232.824 5.35673 232.919 4.96375 233.079 4.70188C233.239 4.44022 233.545 4.17692 234.133 3.97707L233.49 2.08337C232.593 2.38787 231.842 2.8913 231.373 3.65875C230.904 4.42599 230.798 5.32452 230.934 6.26174L232.913 5.97339ZM234.053 4.00052C234.516 3.88509 234.919 3.9412 235.317 4.16685L236.303 2.42667C235.451 1.94413 234.521 1.82254 233.569 2.05992L234.053 4.00052ZM235.362 4.1909C235.742 4.38086 235.964 4.65545 236.07 5.08373L238.011 4.59988C237.765 3.61315 237.167 2.8577 236.258 2.40261L235.362 4.1909ZM236.07 5.08373L240.569 23.1252L242.509 22.6413L238.011 4.59988L236.07 5.08373ZM240.561 23.0904C240.659 23.5526 240.586 23.9448 240.343 24.3263L242.031 25.3999C242.559 24.5692 242.722 23.6415 242.517 22.6761L240.561 23.0904ZM240.358 24.3037C240.111 24.6708 239.775 24.9093 239.296 25.0286L239.78 26.9692C240.716 26.7357 241.48 26.217 242.016 25.4225L240.358 24.3037ZM239.296 25.0286L223.377 28.9977L223.861 30.9383L239.78 26.9692L239.296 25.0286ZM223.41 28.99C221.283 29.4439 219.729 29.3126 218.632 28.7734L217.749 30.5683C219.406 31.3825 221.47 31.4492 223.828 30.9459L223.41 28.99ZM218.643 28.7792C217.378 28.137 216.41 27.3369 215.707 26.3911L214.102 27.5841C215.015 28.812 216.237 29.8008 217.738 30.5625L218.643 28.7792ZM215.712 26.397C214.97 25.3832 214.463 24.3128 214.182 23.1824L212.241 23.6662C212.589 25.0626 213.212 26.3678 214.098 27.5783L215.712 26.397ZM214.182 23.1824C213.884 21.9898 213.817 20.7934 213.978 19.5867L211.995 19.3223C211.801 20.7808 211.883 22.2309 212.241 23.6662L214.182 23.1824ZM213.976 19.5972C214.147 18.4102 214.625 17.2558 215.439 16.128L213.817 14.9575C212.836 16.3171 212.219 17.7705 211.997 19.3118L213.976 19.5972ZM215.44 16.1264C216.2 15.0691 217.326 14.3142 218.902 13.8972L218.391 11.9637C216.442 12.4793 214.889 13.466 213.816 14.9591L215.44 16.1264ZM218.888 13.9008L228.44 11.5194L227.956 9.57877L218.405 11.9602L218.888 13.9008ZM228.44 11.5194C228.886 11.4081 229.26 11.4706 229.631 11.7066L230.705 10.0193C229.864 9.48398 228.925 9.33718 227.956 9.57877L228.44 11.5194ZM229.675 11.733C230.058 11.9497 230.289 12.2512 230.4 12.6973L232.341 12.2134C232.099 11.2445 231.529 10.4843 230.661 9.99287L229.675 11.733ZM230.4 12.6973C230.512 13.1445 230.453 13.542 230.209 13.9486L231.923 14.9787C232.438 14.1226 232.582 13.1812 232.341 12.2134L230.4 12.6973ZM230.209 13.9486C229.991 14.3106 229.684 14.5424 229.222 14.6577L229.706 16.5983C230.659 16.3607 231.42 15.8163 231.923 14.9787L230.209 13.9486ZM229.222 14.6577L219.519 17.0769L220.003 19.0175L229.706 16.5983L229.222 14.6577ZM219.519 17.0769C218.724 17.2751 218.139 17.7937 217.772 18.5086L219.551 19.4223C219.69 19.1523 219.838 19.0586 220.003 19.0175L219.519 17.0769ZM217.787 18.4803C217.453 19.0827 217.264 19.7446 217.209 20.4511L219.203 20.6057C219.237 20.1627 219.352 19.7826 219.536 19.4507L217.787 18.4803ZM217.207 20.4813C217.177 21.1174 217.236 21.7392 217.386 22.3431L219.327 21.8593C219.225 21.4524 219.184 21.0257 219.205 20.5755L217.207 20.4813ZM217.386 22.3431C217.542 22.9674 217.786 23.5654 218.114 24.1355L219.847 23.1372C219.608 22.7216 219.436 22.2962 219.327 21.8593L217.386 22.3431ZM218.145 24.1852C218.518 24.7537 218.987 25.2346 219.546 25.6234L220.688 23.9814C220.338 23.738 220.049 23.4416 219.817 23.0875L218.145 24.1852ZM219.573 25.6413C220.219 26.0609 220.948 26.2265 221.709 26.0786L221.328 24.1153C221.117 24.1563 220.911 24.1255 220.661 23.9635L219.573 25.6413ZM221.761 26.0673L235.027 22.7598L234.543 20.8192L221.277 24.1267L221.761 26.0673ZM235.064 22.7497C235.531 22.6141 236.016 22.3515 236.315 21.8549C236.618 21.3503 236.614 20.7946 236.495 20.3164L234.554 20.8002C234.573 20.8764 234.57 20.908 234.57 20.9054C234.571 20.9033 234.572 20.8931 234.577 20.8773C234.582 20.8611 234.59 20.8429 234.6 20.8248C234.611 20.8068 234.623 20.7931 234.632 20.7838C234.64 20.7748 234.645 20.7723 234.641 20.7747C234.638 20.7772 234.626 20.7844 234.603 20.7944C234.581 20.8045 234.549 20.8166 234.506 20.8292L235.064 22.7497ZM236.495 20.3164L232.894 5.87564L230.954 6.35949L234.554 20.8002L236.495 20.3164Z" fill="#A10000"/>
</g>
</g>
<defs>
<filter id="filter0_d_1_2" x="1.98123" y="2.37817" width="246.364" height="97.2185" filterUnits="userSpaceOnUse" color-interpolation-filters="sRGB">
<feFlood flood-opacity="0" result="BackgroundImageFix"/>
<feColorMatrix in="SourceAlpha" type="matrix" values="0 0 0 0 0 0 0 0 0 0 0 0 0 0 0 0 0 0 127 0" result="hardAlpha"/>
<feOffset dy="4"/>
<feGaussianBlur stdDeviation="2"/>
<feComposite in2="hardAlpha" operator="out"/>
<feColorMatrix type="matrix" values="0 0 0 0 0 0 0 0 0 0 0 0 0 0 0 0 0 0 0.25 0"/>
<feBlend mode="normal" in2="BackgroundImageFix" result="effect1_dropShadow_1_2"/>
<feBlend mode="normal" in="SourceGraphic" in2="effect1_dropShadow_1_2" result="shape"/>
</filter>
<clipPath id="clip0_1_2">
<rect width="245.632" height="57.0773" fill="white" transform="translate(0 29.935) rotate(-7)"/>
</clipPath>
</defs>
</svg>
