<svg width="245" height="35" viewBox="0 0 245 35" fill="none" xmlns="http://www.w3.org/2000/svg">
<g filter="url(#filter0_d_1_3)">
<path d="M5.15625 24.3906C4.45312 24.3646 3.85417 24.1172 3.35938 23.6484C2.86458 23.1536 2.60417 22.5547 2.57812 21.8516V12.125C2.60417 10.276 2.86458 8.53125 3.35938 6.89062C3.88021 5.25 4.72656 3.86979 5.89844 2.75C7.09635 1.60417 8.60677 0.979167 10.4297 0.875H25.5078C26.2109 0.901042 26.7969 1.16146 27.2656 1.65625C27.7604 2.125 28.0208 2.71094 28.0469 3.41406C28.0469 4.14323 27.7995 4.76823 27.3047 5.28906C26.8359 5.8099 26.237 6.08333 25.5078 6.10938H11.7578C10.7682 6.16146 9.94792 6.53906 9.29688 7.24219C8.64583 7.94531 8.22917 8.7526 8.04688 9.66406C7.89062 10.5495 7.82552 11.526 7.85156 12.5938V21.8516C7.82552 22.5807 7.55208 23.1927 7.03125 23.6875C6.51042 24.1562 5.88542 24.3906 5.15625 24.3906ZM9.6875 14.1172C9.6875 13.388 9.94792 12.776 10.4688 12.2812C10.9635 11.7604 11.5755 11.5 12.3047 11.5H25.5078C26.237 11.5 26.849 11.7604 27.3438 12.2812C27.8646 12.776 28.125 13.388 28.125 14.1172C28.125 14.8464 27.8776 15.4714 27.3828 15.9922C26.862 16.487 26.237 16.7344 25.5078 16.7344H12.3047C11.5755 16.7344 10.9505 16.487 10.4297 15.9922C9.9349 15.4714 9.6875 14.8464 9.6875 14.1172ZM32.5 11.1094C32.9948 9.85938 33.8281 8.73958 35 7.75C36.1979 6.73438 37.7083 6.21354 39.5312 6.1875H54.2188C54.9479 6.1875 55.5599 6.44792 56.0547 6.96875C56.5755 7.46354 56.8359 8.07552 56.8359 8.80469C56.8359 9.53385 56.5755 10.1589 56.0547 10.6797C55.5599 11.1745 54.9479 11.4219 54.2188 11.4219H39.375C38.8802 11.4219 38.4505 11.6302 38.0859 12.0469C37.7214 12.4375 37.4349 12.9062 37.2266 13.4531C37.0443 14 36.9531 14.5208 36.9531 15.0156V21.8516C36.7969 23.4141 35.9375 24.2604 34.375 24.3906C33.6458 24.3906 33.0078 24.1562 32.4609 23.6875C31.9401 23.1927 31.6797 22.5807 31.6797 21.8516V15.0547H31.7188C31.7188 13.7005 31.9792 12.3854 32.5 11.1094ZM82.5391 21.8516V12.4375C82.5391 11.7865 82.2005 11.4479 81.5234 11.4219H67.8516C67.3568 11.4479 66.9271 11.6693 66.5625 12.0859C66.1979 12.4766 65.9245 12.9453 65.7422 13.4922C65.5859 14.013 65.5078 14.5469 65.5078 15.0938C65.5078 15.6146 65.5859 16.1484 65.7422 16.6953C65.9245 17.2161 66.1979 17.6849 66.5625 18.1016C66.9271 18.4922 67.3568 18.6875 67.8516 18.6875H77.8516C78.5807 18.6875 79.1927 18.9479 79.6875 19.4688C80.2083 19.9635 80.4688 20.5755 80.4688 21.3047C80.4688 22.0339 80.2083 22.6458 79.6875 23.1406C79.1927 23.6615 78.5807 23.9219 77.8516 23.9219H68.0078C66.1849 23.8958 64.6745 23.388 63.4766 22.3984C62.3047 21.3828 61.4583 20.25 60.9375 19C60.4427 17.724 60.1953 16.4089 60.1953 15.0547C60.1953 13.7526 60.4557 12.4766 60.9766 11.2266C61.4974 9.95052 62.3438 8.81771 63.5156 7.82812C64.6875 6.8125 66.4193 6.26562 68.7109 6.1875H85.1172C85.8464 6.1875 86.4714 6.4349 86.9922 6.92969C87.513 7.39844 87.7865 7.9974 87.8125 8.72656V21.8516C87.8125 22.5807 87.5391 23.1927 86.9922 23.6875C86.4714 24.1562 85.8464 24.3906 85.1172 24.3906C83.5547 24.2604 82.6953 23.4141 82.5391 21.8516ZM114.766 12.4375C114.766 11.7865 114.427 11.4479 113.75 11.4219H100.078C99.5833 11.4479 99.1536 11.6693 98.7891 12.0859C98.4245 12.4766 98.151 12.9453 97.9688 13.4922C97.8125 14.013 97.7344 14.5469 97.7344 15.0938C97.7344 15.6146 97.8125 16.1484 97.9688 16.6953C98.151 17.2161 98.4245 17.6849 98.7891 18.1016C99.1536 18.4922 99.5833 18.6875 100.078 18.6875H110.078C110.807 18.6875 111.419 18.9479 111.914 19.4688C112.435 19.9635 112.695 20.5755 112.695 21.3047C112.695 22.0339 112.435 22.6458 111.914 23.1406C111.419 23.6615 110.807 23.9219 110.078 23.9219H100.234C98.4115 23.8958 96.901 23.388 95.7031 22.3984C94.5312 21.3828 93.6849 20.25 93.1641 19C92.6693 17.724 92.4219 16.4089 92.4219 15.0547C92.4219 13.7526 92.6823 12.4766 93.2031 11.2266C93.724 9.95052 94.5703 8.81771 95.7422 7.82812C96.9141 6.8125 98.6458 6.26562 100.938 6.1875H117.344C118.073 6.1875 118.698 6.4349 119.219 6.92969C119.74 7.39844 120.013 7.9974 120.039 8.72656V21.0703C120.039 23.1536 119.753 25.1198 119.18 26.9688C118.659 28.6094 117.799 29.9896 116.602 31.1094C115.43 32.2552 113.932 32.8802 112.109 32.9844H98.5938C97.8906 32.9583 97.2917 32.6979 96.7969 32.2031C96.3281 31.7344 96.0807 31.1484 96.0547 30.4453C96.0547 29.7161 96.2891 29.0911 96.7578 28.5703C97.2526 28.0495 97.8646 27.776 98.5938 27.75H110.781C111.771 27.6979 112.591 27.3203 113.242 26.6172C113.893 25.9141 114.31 25.0938 114.492 24.1562C114.674 23.2188 114.766 22.0078 114.766 20.5234V12.4375ZM128.008 24.3906C127.305 24.3646 126.706 24.1172 126.211 23.6484C125.716 23.1536 125.456 22.5547 125.43 21.8516V12.125C125.456 10.276 125.716 8.53125 126.211 6.89062C126.732 5.25 127.578 3.86979 128.75 2.75C129.948 1.60417 131.458 0.979167 133.281 0.875H148.359C149.062 0.901042 149.648 1.16146 150.117 1.65625C150.612 2.125 150.872 2.71094 150.898 3.41406C150.898 4.14323 150.651 4.76823 150.156 5.28906C149.688 5.8099 149.089 6.08333 148.359 6.10938H134.609C133.62 6.16146 132.799 6.53906 132.148 7.24219C131.497 7.94531 131.081 8.7526 130.898 9.66406C130.742 10.5495 130.677 11.526 130.703 12.5938V21.8516C130.677 22.5807 130.404 23.1927 129.883 23.6875C129.362 24.1562 128.737 24.3906 128.008 24.3906ZM132.539 14.1172C132.539 13.388 132.799 12.776 133.32 12.2812C133.815 11.7604 134.427 11.5 135.156 11.5H148.359C149.089 11.5 149.701 11.7604 150.195 12.2812C150.716 12.776 150.977 13.388 150.977 14.1172C150.977 14.8464 150.729 15.4714 150.234 15.9922C149.714 16.487 149.089 16.7344 148.359 16.7344H135.156C134.427 16.7344 133.802 16.487 133.281 15.9922C132.786 15.4714 132.539 14.8464 132.539 14.1172ZM162.539 23.9219C160.247 23.8438 158.516 23.3099 157.344 22.3203C156.172 21.3047 155.326 20.1719 154.805 18.9219C154.284 17.6458 154.023 16.3568 154.023 15.0547C154.023 13.7005 154.271 12.3984 154.766 11.1484C155.286 9.8724 156.133 8.73958 157.305 7.75C158.503 6.73438 160.013 6.21354 161.836 6.1875H176.68C177.409 6.1875 178.021 6.4349 178.516 6.92969C179.036 7.39844 179.297 7.97135 179.297 8.64844C179.297 9.35156 179.036 9.95052 178.516 10.4453C178.021 10.9141 177.409 11.1484 176.68 11.1484H162.07C161.497 11.1484 160.99 11.3438 160.547 11.7344C160.13 12.125 159.818 12.6328 159.609 13.2578C159.427 13.8828 159.336 14.4948 159.336 15.0938C159.336 15.7448 159.427 16.3828 159.609 17.0078C159.818 17.6328 160.13 18.1406 160.547 18.5312C160.99 18.8958 161.497 19.0911 162.07 19.1172H176.68C177.409 19.1172 178.021 19.3516 178.516 19.8203C179.036 20.2891 179.297 20.849 179.297 21.5C179.297 22.1771 179.036 22.75 178.516 23.2188C178.021 23.6875 177.409 23.9219 176.68 23.9219H162.539ZM178.828 14.9766C178.828 15.4714 178.607 15.901 178.164 16.2656C177.773 16.6042 177.279 16.7734 176.68 16.7734H163.906C163.307 16.7734 162.799 16.6042 162.383 16.2656C161.966 15.901 161.758 15.4714 161.758 14.9766C161.758 14.5078 161.966 14.0911 162.383 13.7266C162.799 13.388 163.307 13.2188 163.906 13.2188H176.68C177.279 13.2188 177.786 13.401 178.203 13.7656C178.62 14.1042 178.828 14.5078 178.828 14.9766ZM191.797 23.9219C189.505 23.8438 187.773 23.3099 186.602 22.3203C185.43 21.3047 184.583 20.1719 184.062 18.9219C183.542 17.6458 183.281 16.3568 183.281 15.0547C183.281 13.7005 183.529 12.3984 184.023 11.1484C184.544 9.8724 185.391 8.73958 186.562 7.75C187.76 6.73438 189.271 6.21354 191.094 6.1875H205.938C206.667 6.1875 207.279 6.4349 207.773 6.92969C208.294 7.39844 208.555 7.97135 208.555 8.64844C208.555 9.35156 208.294 9.95052 207.773 10.4453C207.279 10.9141 206.667 11.1484 205.938 11.1484H191.328C190.755 11.1484 190.247 11.3438 189.805 11.7344C189.388 12.125 189.076 12.6328 188.867 13.2578C188.685 13.8828 188.594 14.4948 188.594 15.0938C188.594 15.7448 188.685 16.3828 188.867 17.0078C189.076 17.6328 189.388 18.1406 189.805 18.5312C190.247 18.8958 190.755 19.0911 191.328 19.1172H205.938C206.667 19.1172 207.279 19.3516 207.773 19.8203C208.294 20.2891 208.555 20.849 208.555 21.5C208.555 22.1771 208.294 22.75 207.773 23.2188C207.279 23.6875 206.667 23.9219 205.938 23.9219H191.797ZM208.086 14.9766C208.086 15.4714 207.865 15.901 207.422 16.2656C207.031 16.6042 206.536 16.7734 205.938 16.7734H193.164C192.565 16.7734 192.057 16.6042 191.641 16.2656C191.224 15.901 191.016 15.4714 191.016 14.9766C191.016 14.5078 191.224 14.0911 191.641 13.7266C192.057 13.388 192.565 13.2188 193.164 13.2188H205.938C206.536 13.2188 207.044 13.401 207.461 13.7656C207.878 14.1042 208.086 14.5078 208.086 14.9766ZM234.805 2.78906C234.961 1.22656 235.82 0.380208 237.383 0.25C238.112 0.25 238.737 0.497396 239.258 0.992188C239.805 1.46094 240.078 2.0599 240.078 2.78906V21.3828C240.052 22.112 239.779 22.724 239.258 23.2188C238.737 23.6875 238.112 23.9219 237.383 23.9219H220.977C218.685 23.8438 216.953 23.3099 215.781 22.3203C214.609 21.3047 213.763 20.1719 213.242 18.9219C212.721 17.6458 212.461 16.3568 212.461 15.0547C212.461 13.7005 212.708 12.3984 213.203 11.1484C213.724 9.8724 214.57 8.73958 215.742 7.75C216.94 6.73438 218.451 6.21354 220.273 6.1875H230.117C230.846 6.1875 231.458 6.44792 231.953 6.96875C232.474 7.46354 232.734 8.07552 232.734 8.80469C232.734 9.53385 232.474 10.1589 231.953 10.6797C231.458 11.1745 230.846 11.4219 230.117 11.4219H220.117C219.622 11.4219 219.193 11.6302 218.828 12.0469C218.464 12.4375 218.19 12.9062 218.008 13.4531C217.852 13.974 217.773 14.4948 217.773 15.0156C217.773 15.5625 217.852 16.1094 218.008 16.6562C218.19 17.1771 218.464 17.6458 218.828 18.0625C219.193 18.4531 219.622 18.6615 220.117 18.6875H233.789C234.466 18.6615 234.805 18.3229 234.805 17.6719V2.78906Z" fill="#A10000"/>
<path d="M5.15625 24.3906L5.11924 25.3899L5.13774 25.3906H5.15625V24.3906ZM3.35938 23.6484L2.65227 24.3555L2.66182 24.3651L2.67163 24.3744L3.35938 23.6484ZM2.57812 21.8516H1.57812V21.8701L1.57881 21.8886L2.57812 21.8516ZM2.57812 12.125L1.57812 12.1109V12.125H2.57812ZM3.35938 6.89062L2.40625 6.58805L2.40406 6.59495L2.40197 6.60188L3.35938 6.89062ZM5.89844 2.75L6.5893 3.47299L6.58966 3.47264L5.89844 2.75ZM10.4297 0.875V-0.125H10.4011L10.3726 -0.123371L10.4297 0.875ZM25.5078 0.875L25.5448 -0.124315L25.5263 -0.125H25.5078V0.875ZM27.2656 1.65625L26.5397 2.34399L26.5583 2.36361L26.5779 2.3822L27.2656 1.65625ZM28.0469 3.41406H29.0469V3.39555L29.0462 3.37705L28.0469 3.41406ZM27.3047 5.28906L26.5797 4.60031L26.5704 4.61008L26.5614 4.6201L27.3047 5.28906ZM25.5078 6.10938V7.10938H25.5257L25.5435 7.10874L25.5078 6.10938ZM11.7578 6.10938V5.10938H11.7315L11.7053 5.11076L11.7578 6.10938ZM8.04688 9.66406L7.06629 9.46795L7.06407 9.47909L7.06209 9.49028L8.04688 9.66406ZM7.85156 12.5938H8.85156V12.5816L8.85127 12.5694L7.85156 12.5938ZM7.85156 21.8516L8.85093 21.8873L8.85156 21.8694V21.8516H7.85156ZM7.03125 23.6875L7.70021 24.4308L7.71023 24.4218L7.72 24.4125L7.03125 23.6875ZM10.4688 12.2812L11.1575 13.0062L11.1761 12.9886L11.1937 12.97L10.4688 12.2812ZM27.3438 12.2812L26.6188 12.97L26.6364 12.9886L26.655 13.0062L27.3438 12.2812ZM27.3828 15.9922L28.0716 16.7172L28.0902 16.6995L28.1078 16.6809L27.3828 15.9922ZM10.4297 15.9922L9.70469 16.6809L9.72235 16.6995L9.74094 16.7172L10.4297 15.9922ZM5.19326 23.3913C4.72445 23.3739 4.35928 23.2182 4.04712 22.9225L2.67163 24.3744C3.34905 25.0162 4.1818 25.3552 5.11924 25.3899L5.19326 23.3913ZM4.06648 22.9413C3.75127 22.6261 3.5942 22.267 3.57744 21.8146L1.57881 21.8886C1.61414 22.8424 1.9779 23.6812 2.65227 24.3555L4.06648 22.9413ZM3.57812 21.8516V12.125H1.57812V21.8516H3.57812ZM3.57803 12.1391C3.60286 10.3759 3.85091 8.72411 4.31678 7.17937L2.40197 6.60188C1.87826 8.33839 1.60547 10.1762 1.57822 12.1109L3.57803 12.1391ZM4.3125 7.1932C4.78581 5.70227 5.54626 4.46967 6.5893 3.47299L5.20758 2.02701C3.90687 3.26991 2.9746 4.79773 2.40625 6.58805L4.3125 7.1932ZM6.58966 3.47264C7.59788 2.50826 8.87543 1.96545 10.4867 1.87337L10.3726 -0.123371C8.33811 -0.00711275 6.59483 0.700072 5.20721 2.02736L6.58966 3.47264ZM10.4297 1.875H25.5078V-0.125H10.4297V1.875ZM25.4708 1.87431C25.9218 1.89102 26.2573 2.04596 26.5397 2.34399L27.9916 0.968505C27.3364 0.276957 26.5001 -0.0889342 25.5448 -0.124315L25.4708 1.87431ZM26.5779 2.3822C26.8759 2.66455 27.0309 3.0001 27.0476 3.45107L29.0462 3.37705C29.0108 2.42177 28.6449 1.58545 27.9534 0.930297L26.5779 2.3822ZM27.0469 3.41406C27.0469 3.89117 26.895 4.26841 26.5797 4.60031L28.0297 5.97781C28.704 5.26805 29.0469 4.39529 29.0469 3.41406H27.0469ZM26.5614 4.6201C26.2822 4.93031 25.9429 5.0932 25.4721 5.11001L25.5435 7.10874C26.531 7.07347 27.3897 6.68949 28.048 5.95803L26.5614 4.6201ZM25.5078 5.10938H11.7578V7.10938H25.5078V5.10938ZM11.7053 5.11076C10.4656 5.176 9.39762 5.66151 8.56311 6.56278L10.0306 7.9216C10.4982 7.41661 11.0709 7.14691 11.8104 7.10799L11.7053 5.11076ZM8.56311 6.56278C7.7909 7.39678 7.2859 8.36993 7.06629 9.46795L9.02746 9.86018C9.17244 9.13527 9.50077 8.49385 10.0306 7.9216L8.56311 6.56278ZM7.06209 9.49028C6.89239 10.4519 6.82449 11.496 6.85186 12.6181L8.85127 12.5694C8.82655 11.5561 8.88886 10.647 9.03166 9.83785L7.06209 9.49028ZM6.85156 12.5938V21.8516H8.85156V12.5938H6.85156ZM6.8522 21.8159C6.83534 22.2881 6.67028 22.6511 6.3425 22.9625L7.72 24.4125C8.43388 23.7343 8.81571 22.8734 8.85093 21.8873L6.8522 21.8159ZM6.36229 22.9442C6.0331 23.2405 5.64939 23.3906 5.15625 23.3906V25.3906C6.12144 25.3906 6.98773 25.072 7.70021 24.4308L6.36229 22.9442ZM10.6875 14.1172C10.6875 13.6575 10.8387 13.3091 11.1575 13.0062L9.78 11.5563C9.05709 12.243 8.6875 13.1186 8.6875 14.1172H10.6875ZM11.1937 12.97C11.4966 12.6512 11.845 12.5 12.3047 12.5V10.5C11.3061 10.5 10.4305 10.8696 9.74375 11.5925L11.1937 12.97ZM12.3047 12.5H25.5078V10.5H12.3047V12.5ZM25.5078 12.5C25.9675 12.5 26.3159 12.6512 26.6188 12.97L28.0687 11.5925C27.382 10.8696 26.5064 10.5 25.5078 10.5V12.5ZM26.655 13.0062C26.9738 13.3091 27.125 13.6575 27.125 14.1172H29.125C29.125 13.1186 28.7554 12.243 28.0325 11.5563L26.655 13.0062ZM27.125 14.1172C27.125 14.5943 26.9731 14.9715 26.6578 15.3034L28.1078 16.6809C28.7821 15.9712 29.125 15.0984 29.125 14.1172H27.125ZM26.6941 15.2672C26.3622 15.5825 25.9849 15.7344 25.5078 15.7344V17.7344C26.489 17.7344 27.3618 17.3915 28.0716 16.7172L26.6941 15.2672ZM25.5078 15.7344H12.3047V17.7344H25.5078V15.7344ZM12.3047 15.7344C11.8276 15.7344 11.4503 15.5825 11.1184 15.2672L9.74094 16.7172C10.4507 17.3915 11.3235 17.7344 12.3047 17.7344V15.7344ZM11.1547 15.3034C10.8394 14.9715 10.6875 14.5943 10.6875 14.1172H8.6875C8.6875 15.0984 9.03041 15.9712 9.70469 16.6809L11.1547 15.3034ZM32.5 11.1094L33.4259 11.4873L33.4298 11.4774L32.5 11.1094ZM35 7.75L35.6452 8.51403L35.6467 8.51276L35 7.75ZM39.5312 6.1875V5.1875H39.5241L39.517 5.1876L39.5312 6.1875ZM56.0547 6.96875L55.3297 7.6575L55.3473 7.67609L55.3659 7.69375L56.0547 6.96875ZM56.0547 10.6797L55.3476 9.97258L56.0547 10.6797ZM38.0859 12.0469L38.817 12.7292L38.8279 12.7175L38.8385 12.7054L38.0859 12.0469ZM37.2266 13.4531L36.2921 13.0971L36.2846 13.1169L36.2779 13.1369L37.2266 13.4531ZM36.9531 21.8516L37.9482 21.9511L37.9531 21.9014V21.8516H36.9531ZM34.375 24.3906V25.3906H34.4166L34.458 25.3872L34.375 24.3906ZM32.4609 23.6875L31.7722 24.4125L31.7907 24.4301L31.8101 24.4468L32.4609 23.6875ZM31.6797 15.0547V14.0547H30.6797V15.0547H31.6797ZM31.7188 15.0547V16.0547H32.7188V15.0547H31.7188ZM33.4298 11.4774C33.8558 10.4013 34.5815 9.41229 35.6452 8.51403L34.3548 6.98597C33.0748 8.06688 32.1338 9.31741 31.5702 10.7413L33.4298 11.4774ZM35.6467 8.51276C36.6399 7.67067 37.9153 7.21069 39.5455 7.1874L39.517 5.1876C37.5013 5.2164 35.7559 5.79808 34.3533 6.98724L35.6467 8.51276ZM39.5312 7.1875H54.2188V5.1875H39.5312V7.1875ZM54.2188 7.1875C54.6785 7.1875 55.0269 7.33875 55.3297 7.6575L56.7797 6.28C56.0929 5.55709 55.2174 5.1875 54.2188 5.1875V7.1875ZM55.3659 7.69375C55.6847 7.99657 55.8359 8.34498 55.8359 8.80469H57.8359C57.8359 7.80606 57.4664 6.93052 56.7434 6.24375L55.3659 7.69375ZM55.8359 8.80469C55.8359 9.26563 55.683 9.63714 55.3476 9.97258L56.7618 11.3868C57.468 10.6806 57.8359 9.80208 57.8359 8.80469H55.8359ZM55.3476 9.97258C55.0489 10.2712 54.6951 10.4219 54.2188 10.4219V12.4219C55.2007 12.4219 56.0709 12.0777 56.7618 11.3868L55.3476 9.97258ZM54.2188 10.4219H39.375V12.4219H54.2188V10.4219ZM39.375 10.4219C38.5556 10.4219 37.8626 10.7835 37.3334 11.3884L38.8385 12.7054C39.0385 12.4769 39.2048 12.4219 39.375 12.4219V10.4219ZM37.3549 11.3646C36.8939 11.8584 36.5421 12.4409 36.2921 13.0971L38.1611 13.8091C38.3277 13.3716 38.5488 13.0166 38.817 12.7292L37.3549 11.3646ZM36.2779 13.1369C36.0671 13.7693 35.9531 14.3973 35.9531 15.0156H37.9531C37.9531 14.6444 38.0215 14.2307 38.1752 13.7694L36.2779 13.1369ZM35.9531 15.0156V21.8516H37.9531V15.0156H35.9531ZM35.9581 21.7521C35.8961 22.3721 35.7084 22.7304 35.4897 22.9457C35.2712 23.1609 34.9111 23.3425 34.292 23.3941L34.458 25.3872C35.4014 25.3086 36.2522 25.0018 36.8931 24.3707C37.5338 23.7397 37.8539 22.8935 37.9482 21.9511L35.9581 21.7521ZM34.375 23.3906C33.8813 23.3906 33.4749 23.2395 33.1117 22.9282L31.8101 24.4468C32.5407 25.073 33.4104 25.3906 34.375 25.3906V23.3906ZM33.1497 22.9625C32.8309 22.6597 32.6797 22.3113 32.6797 21.8516H30.6797C30.6797 22.8502 31.0493 23.7257 31.7722 24.4125L33.1497 22.9625ZM32.6797 21.8516V15.0547H30.6797V21.8516H32.6797ZM31.6797 16.0547H31.7188V14.0547H31.6797V16.0547ZM32.7188 15.0547C32.7188 13.8324 32.9531 12.6455 33.4258 11.4873L31.5742 10.7315C31.0052 12.1253 30.7188 13.5686 30.7188 15.0547H32.7188ZM82.5391 21.8516H81.5391V21.9014L81.544 21.9511L82.5391 21.8516ZM81.5234 11.4219L81.5619 10.4226L81.5427 10.4219H81.5234V11.4219ZM67.8516 11.4219V10.4219H67.8253L67.799 10.4233L67.8516 11.4219ZM66.5625 12.0859L67.2936 12.7683L67.3045 12.7565L67.3151 12.7444L66.5625 12.0859ZM65.7422 13.4922L64.7935 13.176L64.7887 13.1903L64.7844 13.2048L65.7422 13.4922ZM65.7422 16.6953L64.7807 16.97L64.7887 16.9981L64.7983 17.0257L65.7422 16.6953ZM66.5625 18.1016L65.8099 18.7601L65.8205 18.7721L65.8314 18.7839L66.5625 18.1016ZM79.6875 19.4688L78.9625 20.1575L78.9802 20.1761L78.9988 20.1937L79.6875 19.4688ZM79.6875 23.1406L78.9988 22.4156L78.9802 22.4333L78.9625 22.4519L79.6875 23.1406ZM68.0078 23.9219L67.9935 24.9218L68.0007 24.9219H68.0078V23.9219ZM63.4766 22.3984L62.8216 23.1541L62.8306 23.1619L62.8397 23.1694L63.4766 22.3984ZM60.9375 19L60.0051 19.3615L60.0096 19.3731L60.0144 19.3846L60.9375 19ZM60.9766 11.2266L61.8997 11.6112L61.9024 11.6045L60.9766 11.2266ZM63.5156 7.82812L64.1609 8.59222L64.1706 8.58381L63.5156 7.82812ZM68.7109 6.1875V5.1875H68.6939L68.6769 5.18808L68.7109 6.1875ZM86.9922 6.92969L86.3034 7.65469L86.3132 7.66397L86.3232 7.67298L86.9922 6.92969ZM87.8125 8.72656H88.8125V8.70871L88.8119 8.69087L87.8125 8.72656ZM86.9922 23.6875L87.6612 24.4308L87.6631 24.429L86.9922 23.6875ZM85.1172 24.3906L85.0341 25.3872L85.0756 25.3906H85.1172V24.3906ZM83.5391 21.8516V12.4375H81.5391V21.8516H83.5391ZM83.5391 12.4375C83.5391 11.9447 83.4085 11.4044 82.9923 10.9882C82.5826 10.5786 82.0477 10.4413 81.5619 10.4226L81.485 12.4211C81.53 12.4229 81.5639 12.4269 81.5883 12.4312C81.6126 12.4355 81.6257 12.4397 81.6299 12.4412C81.6339 12.4426 81.6289 12.4413 81.6182 12.4347C81.6072 12.4279 81.5929 12.4173 81.578 12.4024C81.5631 12.3875 81.5511 12.3718 81.5423 12.3573C81.5337 12.3431 81.5301 12.3335 81.5294 12.3315C81.5286 12.3291 81.5391 12.359 81.5391 12.4375H83.5391ZM81.5234 10.4219H67.8516V12.4219H81.5234V10.4219ZM67.799 10.4233C67.0016 10.4652 66.3294 10.8337 65.8099 11.4274L67.3151 12.7444C67.5248 12.5048 67.7119 12.4306 67.9041 12.4205L67.799 10.4233ZM65.8314 11.4036C65.3613 11.9073 65.0176 12.5037 64.7935 13.176L66.6909 13.8084C66.8314 13.3869 67.0345 13.0458 67.2936 12.7683L65.8314 11.4036ZM64.7844 13.2048C64.6 13.8194 64.5078 14.4501 64.5078 15.0938H66.5078C66.5078 14.6436 66.5719 14.2066 66.7 13.7795L64.7844 13.2048ZM64.5078 15.0938C64.5078 15.7156 64.6012 16.342 64.7807 16.97L66.7037 16.4206C66.5707 15.9549 66.5078 15.5136 66.5078 15.0938H64.5078ZM64.7983 17.0257C65.023 17.6675 65.3615 18.2476 65.8099 18.7601L67.3151 17.4431C67.0343 17.1222 66.826 16.7648 66.686 16.365L64.7983 17.0257ZM65.8314 18.7839C66.3683 19.3591 67.0558 19.6875 67.8516 19.6875V17.6875C67.6578 17.6875 67.4859 17.6253 67.2936 17.4192L65.8314 18.7839ZM67.8516 19.6875H77.8516V17.6875H67.8516V19.6875ZM77.8516 19.6875C78.3113 19.6875 78.6597 19.8387 78.9625 20.1575L80.4125 18.78C79.7257 18.0571 78.8502 17.6875 77.8516 17.6875V19.6875ZM78.9988 20.1937C79.3175 20.4966 79.4688 20.845 79.4688 21.3047H81.4688C81.4688 20.3061 81.0992 19.4305 80.3762 18.7438L78.9988 20.1937ZM79.4688 21.3047C79.4688 21.7644 79.3175 22.1128 78.9988 22.4156L80.3762 23.8656C81.0992 23.1789 81.4688 22.3033 81.4688 21.3047H79.4688ZM78.9625 22.4519C78.6597 22.7706 78.3113 22.9219 77.8516 22.9219V24.9219C78.8502 24.9219 79.7257 24.5523 80.4125 23.8294L78.9625 22.4519ZM77.8516 22.9219H68.0078V24.9219H77.8516V22.9219ZM68.0221 22.922C66.3855 22.8986 65.1066 22.4479 64.1134 21.6275L62.8397 23.1694C64.2424 24.3281 65.9843 24.8931 67.9935 24.9218L68.0221 22.922ZM64.1315 21.6427C63.0595 20.7137 62.3138 19.7032 61.8606 18.6154L60.0144 19.3846C60.6028 20.7968 61.5499 22.052 62.8216 23.1541L64.1315 21.6427ZM61.8699 18.6385C61.4193 17.4765 61.1953 16.2839 61.1953 15.0547H59.1953C59.1953 16.5339 59.4661 17.9715 60.0051 19.3615L61.8699 18.6385ZM61.1953 15.0547C61.1953 13.8899 61.4275 12.7443 61.8996 11.6112L60.0535 10.8419C59.4839 12.2088 59.1953 13.6153 59.1953 15.0547H61.1953ZM61.9024 11.6045C62.3556 10.4941 63.0981 9.48951 64.1608 8.59215L62.8704 7.0641C61.5894 8.1459 60.6392 9.4069 60.0507 10.8487L61.9024 11.6045ZM64.1706 8.58381C65.1037 7.77513 66.5765 7.26085 68.745 7.18692L68.6769 5.18808C66.2621 5.2704 64.2713 5.84987 62.8607 7.07244L64.1706 8.58381ZM68.7109 7.1875H85.1172V5.1875H68.7109V7.1875ZM85.1172 7.1875C85.5943 7.1875 85.9715 7.33938 86.3034 7.65469L87.6809 6.20469C86.9712 5.53041 86.0984 5.1875 85.1172 5.1875V7.1875ZM86.3232 7.67298C86.6334 7.95217 86.7963 8.29145 86.8131 8.76225L88.8119 8.69087C88.7766 7.70334 88.3926 6.84471 87.6612 6.18639L86.3232 7.67298ZM86.8125 8.72656V21.8516H88.8125V8.72656H86.8125ZM86.8125 21.8516C86.8125 22.2945 86.6613 22.6383 86.3213 22.946L87.6631 24.429C88.4168 23.7471 88.8125 22.867 88.8125 21.8516H86.8125ZM86.3232 22.9442C85.994 23.2405 85.6103 23.3906 85.1172 23.3906V25.3906C86.0824 25.3906 86.9487 25.072 87.6612 24.4308L86.3232 22.9442ZM85.2002 23.3941C84.5811 23.3425 84.221 23.1609 84.0025 22.9457C83.7838 22.7304 83.5961 22.3721 83.5341 21.7521L81.544 21.9511C81.6383 22.8935 81.9584 23.7397 82.5991 24.3707C83.24 25.0018 84.0908 25.3086 85.0341 25.3872L85.2002 23.3941ZM113.75 11.4219L113.788 10.4226L113.769 10.4219H113.75V11.4219ZM100.078 11.4219V10.4219H100.052L100.026 10.4233L100.078 11.4219ZM98.7891 12.0859L99.5201 12.7683L99.5311 12.7565L99.5416 12.7444L98.7891 12.0859ZM97.9688 13.4922L97.0201 13.176L97.0153 13.1903L97.0109 13.2048L97.9688 13.4922ZM97.9688 16.6953L97.0072 16.97L97.0152 16.9981L97.0249 17.0257L97.9688 16.6953ZM98.7891 18.1016L98.0365 18.7601L98.0471 18.7721L98.058 18.7839L98.7891 18.1016ZM111.914 19.4688L111.189 20.1575L111.207 20.1761L111.225 20.1937L111.914 19.4688ZM111.914 23.1406L111.225 22.4156L111.207 22.4333L111.189 22.4519L111.914 23.1406ZM100.234 23.9219L100.22 24.9218L100.227 24.9219H100.234V23.9219ZM95.7031 22.3984L95.0482 23.1541L95.0571 23.1619L95.0662 23.1694L95.7031 22.3984ZM93.1641 19L92.2317 19.3615L92.2362 19.3731L92.241 19.3846L93.1641 19ZM93.2031 11.2266L94.1262 11.6112L94.129 11.6045L93.2031 11.2266ZM95.7422 7.82812L96.3874 8.59222L96.3971 8.58381L95.7422 7.82812ZM100.938 6.1875V5.1875H100.92L100.903 5.18808L100.938 6.1875ZM119.219 6.92969L118.53 7.65469L118.54 7.66397L118.55 7.67298L119.219 6.92969ZM120.039 8.72656H121.039V8.70871L121.038 8.69087L120.039 8.72656ZM119.18 26.9688L120.133 27.2713L120.135 27.2647L119.18 26.9688ZM116.602 31.1094L115.919 30.3788L115.91 30.3865L115.902 30.3944L116.602 31.1094ZM112.109 32.9844V33.9844H112.138L112.166 33.9827L112.109 32.9844ZM98.5938 32.9844L98.5567 33.9837L98.5752 33.9844H98.5938V32.9844ZM96.0547 30.4453H95.0547V30.4638L95.0554 30.4823L96.0547 30.4453ZM96.7578 28.5703L96.0328 27.8816L96.0235 27.8913L96.0145 27.9013L96.7578 28.5703ZM98.5938 27.75V26.75H98.5759L98.5581 26.7506L98.5938 27.75ZM110.781 27.75V28.75H110.808L110.834 28.7486L110.781 27.75ZM115.766 12.4375C115.766 11.9447 115.635 11.4044 115.219 10.9882C114.809 10.5786 114.274 10.4413 113.788 10.4226L113.712 12.4211C113.757 12.4229 113.791 12.4269 113.815 12.4312C113.839 12.4355 113.852 12.4397 113.856 12.4412C113.86 12.4426 113.856 12.4413 113.845 12.4347C113.834 12.4279 113.82 12.4173 113.805 12.4024C113.79 12.3875 113.778 12.3718 113.769 12.3573C113.76 12.3431 113.757 12.3335 113.756 12.3315C113.755 12.3291 113.766 12.359 113.766 12.4375H115.766ZM113.75 10.4219H100.078V12.4219H113.75V10.4219ZM100.026 10.4233C99.2282 10.4652 98.556 10.8337 98.0365 11.4274L99.5416 12.7444C99.7513 12.5048 99.9385 12.4306 100.131 12.4205L100.026 10.4233ZM98.058 11.4036C97.5879 11.9073 97.2441 12.5037 97.0201 13.176L98.9174 13.8084C99.0579 13.3869 99.2611 13.0458 99.5201 12.7683L98.058 11.4036ZM97.0109 13.2048C96.8265 13.8194 96.7344 14.4501 96.7344 15.0938H98.7344C98.7344 14.6436 98.7985 14.2066 98.9266 13.7795L97.0109 13.2048ZM96.7344 15.0938C96.7344 15.7156 96.8278 16.342 97.0072 16.97L98.9303 16.4206C98.7972 15.9549 98.7344 15.5136 98.7344 15.0938H96.7344ZM97.0249 17.0257C97.2495 17.6675 97.5881 18.2476 98.0365 18.7601L99.5416 17.4431C99.2609 17.1222 99.0525 16.7648 98.9126 16.365L97.0249 17.0257ZM98.058 18.7839C98.5948 19.3591 99.2823 19.6875 100.078 19.6875V17.6875C99.8843 17.6875 99.7125 17.6253 99.5201 17.4192L98.058 18.7839ZM100.078 19.6875H110.078V17.6875H100.078V19.6875ZM110.078 19.6875C110.538 19.6875 110.886 19.8387 111.189 20.1575L112.639 18.78C111.952 18.0571 111.077 17.6875 110.078 17.6875V19.6875ZM111.225 20.1937C111.544 20.4966 111.695 20.845 111.695 21.3047H113.695C113.695 20.3061 113.326 19.4305 112.603 18.7438L111.225 20.1937ZM111.695 21.3047C111.695 21.7644 111.544 22.1128 111.225 22.4156L112.603 23.8656C113.326 23.1789 113.695 22.3033 113.695 21.3047H111.695ZM111.189 22.4519C110.886 22.7706 110.538 22.9219 110.078 22.9219V24.9219C111.077 24.9219 111.952 24.5523 112.639 23.8294L111.189 22.4519ZM110.078 22.9219H100.234V24.9219H110.078V22.9219ZM100.249 22.922C98.6121 22.8986 97.3332 22.4479 96.34 21.6275L95.0662 23.1694C96.4689 24.3281 98.2108 24.8931 100.22 24.9218L100.249 22.922ZM96.3581 21.6427C95.286 20.7137 94.5404 19.7032 94.0871 18.6154L92.241 19.3846C92.8294 20.7968 93.7765 22.052 95.0482 23.1541L96.3581 21.6427ZM94.0964 18.6385C93.6458 17.4765 93.4219 16.2839 93.4219 15.0547H91.4219C91.4219 16.5339 91.6927 17.9715 92.2317 19.3615L94.0964 18.6385ZM93.4219 15.0547C93.4219 13.8899 93.6541 12.7443 94.1262 11.6112L92.28 10.8419C91.7105 12.2088 91.4219 13.6153 91.4219 15.0547H93.4219ZM94.129 11.6045C94.5822 10.4941 95.3247 9.48951 96.3874 8.59215L95.097 7.0641C93.8159 8.1459 92.8658 9.4069 92.2773 10.8487L94.129 11.6045ZM96.3971 8.58381C97.3302 7.77513 98.803 7.26085 100.972 7.18692L100.903 5.18808C98.4886 5.2704 96.4979 5.84987 95.0873 7.07244L96.3971 8.58381ZM100.938 7.1875H117.344V5.1875H100.938V7.1875ZM117.344 7.1875C117.821 7.1875 118.198 7.33938 118.53 7.65469L119.907 6.20469C119.198 5.53041 118.325 5.1875 117.344 5.1875V7.1875ZM118.55 7.67298C118.86 7.95217 119.023 8.29145 119.04 8.76225L121.038 8.69087C121.003 7.70334 120.619 6.84471 119.888 6.18639L118.55 7.67298ZM119.039 8.72656V21.0703H121.039V8.72656H119.039ZM119.039 21.0703C119.039 23.0609 118.766 24.9267 118.224 26.6728L120.135 27.2647C120.74 25.3129 121.039 23.2464 121.039 21.0703H119.039ZM118.227 26.6662C117.755 28.1518 116.985 29.3821 115.919 30.3788L117.284 31.8399C118.614 30.5971 119.563 29.067 120.133 27.2713L118.227 26.6662ZM115.902 30.3944C114.923 31.3517 113.664 31.8939 112.052 31.986L112.166 33.9827C114.201 33.8665 115.936 33.1587 117.301 31.8244L115.902 30.3944ZM112.109 31.9844H98.5938V33.9844H112.109V31.9844ZM98.6308 31.9851C98.1783 31.9683 97.8192 31.8112 97.504 31.496L96.0898 32.9102C96.7641 33.5846 97.6029 33.9484 98.5567 33.9837L98.6308 31.9851ZM97.504 31.496C97.2254 31.2174 97.0713 30.8762 97.054 30.4083L95.0554 30.4823C95.0901 31.4207 95.4309 32.2513 96.0898 32.9102L97.504 31.496ZM97.0547 30.4453C97.0547 29.9522 97.2048 29.5685 97.5011 29.2393L96.0145 27.9013C95.3733 28.6138 95.0547 29.4801 95.0547 30.4453H97.0547ZM97.4828 29.2591C97.7942 28.9313 98.1573 28.7662 98.6294 28.7494L98.5581 26.7506C97.5719 26.7859 96.711 27.1677 96.0328 27.8816L97.4828 29.2591ZM98.5938 28.75H110.781V26.75H98.5938V28.75ZM110.834 28.7486C112.073 28.6834 113.141 28.1979 113.976 27.2966L112.508 25.9378C112.041 26.4428 111.468 26.7125 110.729 26.7514L110.834 28.7486ZM113.976 27.2966C114.753 26.4574 115.256 25.468 115.474 24.3471L113.511 23.9654C113.364 24.7195 113.033 25.3708 112.508 25.9378L113.976 27.2966ZM115.474 24.3471C115.673 23.3222 115.766 22.0409 115.766 20.5234H113.766C113.766 21.9748 113.676 23.1153 113.511 23.9654L115.474 24.3471ZM115.766 20.5234V12.4375H113.766V20.5234H115.766ZM128.008 24.3906L127.971 25.3899L127.989 25.3906H128.008V24.3906ZM126.211 23.6484L125.504 24.3555L125.513 24.3651L125.523 24.3744L126.211 23.6484ZM125.43 21.8516H124.43V21.8701L124.43 21.8886L125.43 21.8516ZM125.43 12.125L124.43 12.1109V12.125H125.43ZM126.211 6.89062L125.258 6.58805L125.256 6.59495L125.254 6.60188L126.211 6.89062ZM128.75 2.75L129.441 3.47299L129.441 3.47264L128.75 2.75ZM133.281 0.875V-0.125H133.253L133.224 -0.123371L133.281 0.875ZM148.359 0.875L148.396 -0.124315L148.378 -0.125H148.359V0.875ZM150.117 1.65625L149.391 2.34399L149.41 2.36361L149.429 2.3822L150.117 1.65625ZM150.898 3.41406H151.898V3.39555L151.898 3.37705L150.898 3.41406ZM150.156 5.28906L149.431 4.60031L149.422 4.61008L149.413 4.6201L150.156 5.28906ZM148.359 6.10938V7.10938H148.377L148.395 7.10874L148.359 6.10938ZM134.609 6.10938V5.10938H134.583L134.557 5.11076L134.609 6.10938ZM130.898 9.66406L129.918 9.46795L129.916 9.47909L129.914 9.49028L130.898 9.66406ZM130.703 12.5938H131.703V12.5816L131.703 12.5694L130.703 12.5938ZM130.703 21.8516L131.702 21.8873L131.703 21.8694V21.8516H130.703ZM129.883 23.6875L130.552 24.4308L130.562 24.4218L130.572 24.4125L129.883 23.6875ZM133.32 12.2812L134.009 13.0062L134.028 12.9886L134.045 12.97L133.32 12.2812ZM150.195 12.2812L149.47 12.97L149.488 12.9886L149.507 13.0062L150.195 12.2812ZM150.234 15.9922L150.923 16.7172L150.942 16.6995L150.959 16.6809L150.234 15.9922ZM133.281 15.9922L132.556 16.6809L132.574 16.6995L132.593 16.7172L133.281 15.9922ZM128.045 23.3913C127.576 23.3739 127.211 23.2182 126.899 22.9225L125.523 24.3744C126.201 25.0162 127.033 25.3552 127.971 25.3899L128.045 23.3913ZM126.918 22.9413C126.603 22.6261 126.446 22.267 126.429 21.8146L124.43 21.8886C124.466 22.8424 124.829 23.6812 125.504 24.3555L126.918 22.9413ZM126.43 21.8516V12.125H124.43V21.8516H126.43ZM126.43 12.1391C126.454 10.3759 126.702 8.72411 127.168 7.17937L125.254 6.60188C124.73 8.33839 124.457 10.1762 124.43 12.1109L126.43 12.1391ZM127.164 7.1932C127.637 5.70227 128.398 4.46967 129.441 3.47299L128.059 2.02701C126.758 3.26991 125.826 4.79773 125.258 6.58805L127.164 7.1932ZM129.441 3.47264C130.449 2.50826 131.727 1.96545 133.338 1.87337L133.224 -0.123371C131.19 -0.00711275 129.446 0.700072 128.059 2.02736L129.441 3.47264ZM133.281 1.875H148.359V-0.125H133.281V1.875ZM148.322 1.87431C148.773 1.89102 149.109 2.04596 149.391 2.34399L150.843 0.968505C150.188 0.276957 149.352 -0.0889342 148.396 -0.124315L148.322 1.87431ZM149.429 2.3822C149.727 2.66455 149.882 3.0001 149.899 3.45107L151.898 3.37705C151.862 2.42177 151.496 1.58545 150.805 0.930297L149.429 2.3822ZM149.898 3.41406C149.898 3.89117 149.747 4.26841 149.431 4.60031L150.881 5.97781C151.556 5.26805 151.898 4.39529 151.898 3.41406H149.898ZM149.413 4.6201C149.134 4.93031 148.794 5.0932 148.324 5.11001L148.395 7.10874C149.383 7.07347 150.241 6.68949 150.9 5.95803L149.413 4.6201ZM148.359 5.10938H134.609V7.10938H148.359V5.10938ZM134.557 5.11076C133.317 5.176 132.249 5.66151 131.415 6.56278L132.882 7.9216C133.35 7.41661 133.922 7.14691 134.662 7.10799L134.557 5.11076ZM131.415 6.56278C130.642 7.39678 130.137 8.36993 129.918 9.46795L131.879 9.86018C132.024 9.13527 132.352 8.49385 132.882 7.9216L131.415 6.56278ZM129.914 9.49028C129.744 10.4519 129.676 11.496 129.703 12.6181L131.703 12.5694C131.678 11.5561 131.74 10.647 131.883 9.83785L129.914 9.49028ZM129.703 12.5938V21.8516H131.703V12.5938H129.703ZM129.704 21.8159C129.687 22.2881 129.522 22.6511 129.194 22.9625L130.572 24.4125C131.285 23.7343 131.667 22.8734 131.702 21.8873L129.704 21.8159ZM129.214 22.9442C128.885 23.2405 128.501 23.3906 128.008 23.3906V25.3906C128.973 25.3906 129.839 25.072 130.552 24.4308L129.214 22.9442ZM133.539 14.1172C133.539 13.6575 133.69 13.3091 134.009 13.0062L132.632 11.5563C131.909 12.243 131.539 13.1186 131.539 14.1172H133.539ZM134.045 12.97C134.348 12.6512 134.697 12.5 135.156 12.5V10.5C134.158 10.5 133.282 10.8696 132.595 11.5925L134.045 12.97ZM135.156 12.5H148.359V10.5H135.156V12.5ZM148.359 12.5C148.819 12.5 149.167 12.6512 149.47 12.97L150.92 11.5925C150.234 10.8696 149.358 10.5 148.359 10.5V12.5ZM149.507 13.0062C149.825 13.3091 149.977 13.6575 149.977 14.1172H151.977C151.977 13.1186 151.607 12.243 150.884 11.5563L149.507 13.0062ZM149.977 14.1172C149.977 14.5943 149.825 14.9715 149.509 15.3034L150.959 16.6809C151.634 15.9712 151.977 15.0984 151.977 14.1172H149.977ZM149.546 15.2672C149.214 15.5825 148.836 15.7344 148.359 15.7344V17.7344C149.341 17.7344 150.213 17.3915 150.923 16.7172L149.546 15.2672ZM148.359 15.7344H135.156V17.7344H148.359V15.7344ZM135.156 15.7344C134.679 15.7344 134.302 15.5825 133.97 15.2672L132.593 16.7172C133.302 17.3915 134.175 17.7344 135.156 17.7344V15.7344ZM134.006 15.3034C133.691 14.9715 133.539 14.5943 133.539 14.1172H131.539C131.539 15.0984 131.882 15.9712 132.556 16.6809L134.006 15.3034ZM162.539 23.9219L162.505 24.9213L162.522 24.9219H162.539V23.9219ZM157.344 22.3203L156.689 23.0761L156.699 23.0843L157.344 22.3203ZM154.805 18.9219L153.879 19.2998L153.882 19.3065L154.805 18.9219ZM154.766 11.1484L153.84 10.7705L153.836 10.7804L154.766 11.1484ZM157.305 7.75L157.95 8.51403L157.951 8.51276L157.305 7.75ZM161.836 6.1875V5.1875H161.829L161.822 5.1876L161.836 6.1875ZM178.516 6.92969L177.809 7.63679L177.827 7.65539L177.847 7.67298L178.516 6.92969ZM178.516 10.4453L179.203 11.1713L179.204 11.1703L178.516 10.4453ZM160.547 11.7344L159.885 10.9845L159.874 10.9945L159.863 11.0048L160.547 11.7344ZM159.609 13.2578L158.661 12.9416L158.655 12.9596L158.649 12.9778L159.609 13.2578ZM159.609 17.0078L158.649 17.2878L158.655 17.306L158.661 17.324L159.609 17.0078ZM160.547 18.5312L159.863 19.2608L159.886 19.2828L159.911 19.3032L160.547 18.5312ZM162.07 19.1172L162.025 20.1162L162.048 20.1172H162.07V19.1172ZM178.516 19.8203L177.828 20.5463L177.837 20.5551L177.847 20.5636L178.516 19.8203ZM178.516 23.2188L177.847 22.4755L177.837 22.484L177.828 22.4928L178.516 23.2188ZM178.164 16.2656L177.528 15.4937L177.519 15.5017L177.509 15.5099L178.164 16.2656ZM162.383 16.2656L161.724 17.0182L161.738 17.0302L161.752 17.0417L162.383 16.2656ZM162.383 13.7266L161.752 12.9504L161.738 12.962L161.724 12.974L162.383 13.7266ZM178.203 13.7656L177.545 14.5182L177.558 14.5302L177.573 14.5417L178.203 13.7656ZM162.573 22.9225C160.4 22.8484 158.923 22.3448 157.989 21.5563L156.699 23.0843C158.109 24.275 160.095 24.8391 162.505 24.9213L162.573 22.9225ZM157.999 21.5646C156.927 20.6355 156.181 19.6251 155.728 18.5373L153.882 19.3065C154.47 20.7187 155.417 21.9738 156.689 23.076L157.999 21.5646ZM155.731 18.544C155.256 17.3808 155.023 16.2197 155.023 15.0547H153.023C153.023 16.4938 153.312 17.9109 153.879 19.2998L155.731 18.544ZM155.023 15.0547C155.023 13.8256 155.247 12.6484 155.695 11.5165L153.836 10.7804C153.294 12.1484 153.023 13.5755 153.023 15.0547H155.023ZM155.691 11.5263C156.145 10.416 156.887 9.41139 157.95 8.51403L156.66 6.98597C155.378 8.06778 154.428 9.32877 153.84 10.7705L155.691 11.5263ZM157.951 8.51276C158.945 7.67067 160.22 7.21069 161.85 7.1874L161.822 5.1876C159.806 5.2164 158.061 5.79808 156.658 6.98724L157.951 8.51276ZM161.836 7.1875H176.68V5.1875H161.836V7.1875ZM176.68 7.1875C177.156 7.1875 177.51 7.33815 177.809 7.63679L179.223 6.22258C178.532 5.53164 177.662 5.1875 176.68 5.1875V7.1875ZM177.847 7.67298C178.165 7.95961 178.297 8.26589 178.297 8.64844H180.297C180.297 7.67682 179.908 6.83727 179.185 6.18639L177.847 7.67298ZM178.297 8.64844C178.297 9.0708 178.154 9.40968 177.827 9.72031L179.204 11.1703C179.919 10.4914 180.297 9.63233 180.297 8.64844H178.297ZM177.828 9.71936C177.533 9.9991 177.173 10.1484 176.68 10.1484V12.1484C177.645 12.1484 178.509 11.829 179.203 11.1713L177.828 9.71936ZM176.68 10.1484H162.07V12.1484H176.68V10.1484ZM162.07 10.1484C161.246 10.1484 160.505 10.4381 159.885 10.9845L161.208 12.4842C161.475 12.2494 161.749 12.1484 162.07 12.1484V10.1484ZM159.863 11.0048C159.308 11.5255 158.913 12.1833 158.661 12.9416L160.558 13.574C160.722 13.0823 160.953 12.7245 161.231 12.4639L159.863 11.0048ZM158.649 12.9778C158.443 13.6859 158.336 14.3922 158.336 15.0938H160.336C160.336 14.5974 160.411 14.0797 160.569 13.5378L158.649 12.9778ZM158.336 15.0938C158.336 15.8395 158.441 16.5718 158.649 17.2878L160.569 16.7278C160.414 16.1938 160.336 15.65 160.336 15.0938H158.336ZM158.661 17.324C158.913 18.0823 159.308 18.7402 159.863 19.2608L161.231 17.8017C160.953 17.5411 160.722 17.1833 160.558 16.6916L158.661 17.324ZM159.911 19.3032C160.521 19.8053 161.236 20.0803 162.025 20.1162L162.116 18.1182C161.759 18.102 161.458 17.9864 161.183 17.7593L159.911 19.3032ZM162.07 20.1172H176.68V18.1172H162.07V20.1172ZM176.68 20.1172C177.173 20.1172 177.533 20.2665 177.828 20.5463L179.203 19.0944C178.509 18.4366 177.645 18.1172 176.68 18.1172V20.1172ZM177.847 20.5636C178.175 20.859 178.297 21.1559 178.297 21.5H180.297C180.297 20.542 179.898 19.7191 179.185 19.077L177.847 20.5636ZM178.297 21.5C178.297 21.8825 178.165 22.1888 177.847 22.4755L179.185 23.962C179.908 23.3112 180.297 22.4716 180.297 21.5H178.297ZM177.828 22.4928C177.533 22.7725 177.173 22.9219 176.68 22.9219V24.9219C177.645 24.9219 178.509 24.6025 179.203 23.9447L177.828 22.4928ZM176.68 22.9219H162.539V24.9219H176.68V22.9219ZM177.828 14.9766C177.828 15.1232 177.781 15.2853 177.528 15.4937L178.8 17.0376C179.432 16.5168 179.828 15.8195 179.828 14.9766H177.828ZM177.509 15.5099C177.329 15.6663 177.079 15.7734 176.68 15.7734V17.7734C177.479 17.7734 178.218 17.542 178.819 17.0213L177.509 15.5099ZM176.68 15.7734H163.906V17.7734H176.68V15.7734ZM163.906 15.7734C163.509 15.7734 163.231 15.6664 163.013 15.4895L161.752 17.0417C162.368 17.542 163.106 17.7734 163.906 17.7734V15.7734ZM163.041 15.513C162.813 15.3131 162.758 15.1467 162.758 14.9766H160.758C160.758 15.796 161.119 16.489 161.724 17.0182L163.041 15.513ZM162.758 14.9766C162.758 14.849 162.798 14.6916 163.041 14.4791L161.724 12.974C161.134 13.4906 160.758 14.1666 160.758 14.9766H162.758ZM163.013 14.5027C163.231 14.3258 163.509 14.2188 163.906 14.2188V12.2188C163.106 12.2188 162.368 12.4502 161.752 12.9504L163.013 14.5027ZM163.906 14.2188H176.68V12.2188H163.906V14.2188ZM176.68 14.2188C177.058 14.2188 177.326 14.3267 177.545 14.5182L178.862 13.013C178.247 12.4754 177.499 12.2188 176.68 12.2188V14.2188ZM177.573 14.5417C177.794 14.7214 177.828 14.8549 177.828 14.9766H179.828C179.828 14.1607 179.446 13.4869 178.834 12.9895L177.573 14.5417ZM191.797 23.9219L191.763 24.9213L191.78 24.9219H191.797V23.9219ZM186.602 22.3203L185.947 23.0761L185.956 23.0843L186.602 22.3203ZM184.062 18.9219L183.137 19.2998L183.139 19.3065L184.062 18.9219ZM184.023 11.1484L183.098 10.7705L183.094 10.7804L184.023 11.1484ZM186.562 7.75L187.208 8.51403L187.209 8.51276L186.562 7.75ZM191.094 6.1875V5.1875H191.087L191.079 5.1876L191.094 6.1875ZM207.773 6.92969L207.066 7.63679L207.085 7.65539L207.104 7.67298L207.773 6.92969ZM207.773 10.4453L208.461 11.1713L208.462 11.1703L207.773 10.4453ZM189.805 11.7344L189.143 10.9845L189.132 10.9945L189.121 11.0048L189.805 11.7344ZM188.867 13.2578L187.919 12.9416L187.913 12.9596L187.907 12.9778L188.867 13.2578ZM188.867 17.0078L187.907 17.2878L187.913 17.306L187.919 17.324L188.867 17.0078ZM189.805 18.5312L189.121 19.2608L189.144 19.2828L189.169 19.3032L189.805 18.5312ZM191.328 19.1172L191.283 20.1162L191.305 20.1172H191.328V19.1172ZM207.773 19.8203L207.086 20.5463L207.095 20.5551L207.104 20.5636L207.773 19.8203ZM207.773 23.2188L207.104 22.4755L207.095 22.484L207.086 22.4928L207.773 23.2188ZM207.422 16.2656L206.786 15.4937L206.776 15.5017L206.767 15.5099L207.422 16.2656ZM191.641 16.2656L190.982 17.0182L190.996 17.0302L191.01 17.0417L191.641 16.2656ZM191.641 13.7266L191.01 12.9504L190.996 12.962L190.982 12.974L191.641 13.7266ZM207.461 13.7656L206.802 14.5182L206.816 14.5302L206.83 14.5417L207.461 13.7656ZM191.831 22.9225C189.657 22.8484 188.18 22.3448 187.247 21.5563L185.956 23.0843C187.366 24.275 189.353 24.8391 191.763 24.9213L191.831 22.9225ZM187.256 21.5646C186.184 20.6355 185.439 19.6251 184.986 18.5373L183.139 19.3065C183.728 20.7187 184.675 21.9738 185.947 23.076L187.256 21.5646ZM184.988 18.544C184.514 17.3808 184.281 16.2197 184.281 15.0547H182.281C182.281 16.4938 182.57 17.9109 183.137 19.2998L184.988 18.544ZM184.281 15.0547C184.281 13.8256 184.505 12.6484 184.953 11.5165L183.094 10.7804C182.552 12.1484 182.281 13.5755 182.281 15.0547H184.281ZM184.949 11.5263C185.402 10.416 186.145 9.41139 187.208 8.51403L185.917 6.98597C184.636 8.06778 183.686 9.32877 183.098 10.7705L184.949 11.5263ZM187.209 8.51276C188.202 7.67067 189.478 7.21069 191.108 7.1874L191.079 5.1876C189.064 5.2164 187.318 5.79808 185.916 6.98724L187.209 8.51276ZM191.094 7.1875H205.938V5.1875H191.094V7.1875ZM205.938 7.1875C206.414 7.1875 206.768 7.33815 207.066 7.63679L208.481 6.22258C207.79 5.53164 206.919 5.1875 205.938 5.1875V7.1875ZM207.104 7.67298C207.423 7.95961 207.555 8.26589 207.555 8.64844H209.555C209.555 7.67682 209.166 6.83727 208.442 6.18639L207.104 7.67298ZM207.555 8.64844C207.555 9.0708 207.412 9.40968 207.085 9.72031L208.462 11.1703C209.177 10.4914 209.555 9.63233 209.555 8.64844H207.555ZM207.086 9.71936C206.79 9.9991 206.43 10.1484 205.938 10.1484V12.1484C206.903 12.1484 207.767 11.829 208.461 11.1713L207.086 9.71936ZM205.938 10.1484H191.328V12.1484H205.938V10.1484ZM191.328 10.1484C190.504 10.1484 189.762 10.4381 189.143 10.9845L190.466 12.4842C190.732 12.2494 191.007 12.1484 191.328 12.1484V10.1484ZM189.121 11.0048C188.565 11.5255 188.171 12.1833 187.919 12.9416L189.816 13.574C189.98 13.0823 190.211 12.7245 190.489 12.4639L189.121 11.0048ZM187.907 12.9778C187.701 13.6859 187.594 14.3922 187.594 15.0938H189.594C189.594 14.5974 189.669 14.0797 189.827 13.5378L187.907 12.9778ZM187.594 15.0938C187.594 15.8395 187.698 16.5718 187.907 17.2878L189.827 16.7278C189.671 16.1938 189.594 15.65 189.594 15.0938H187.594ZM187.919 17.324C188.171 18.0823 188.565 18.7402 189.121 19.2608L190.489 17.8017C190.211 17.5411 189.98 17.1833 189.816 16.6916L187.919 17.324ZM189.169 19.3032C189.779 19.8053 190.494 20.0803 191.283 20.1162L191.374 18.1182C191.017 18.102 190.716 17.9864 190.44 17.7593L189.169 19.3032ZM191.328 20.1172H205.938V18.1172H191.328V20.1172ZM205.938 20.1172C206.43 20.1172 206.79 20.2665 207.086 20.5463L208.461 19.0944C207.767 18.4366 206.903 18.1172 205.938 18.1172V20.1172ZM207.104 20.5636C207.433 20.859 207.555 21.1559 207.555 21.5H209.555C209.555 20.542 209.156 19.7191 208.442 19.077L207.104 20.5636ZM207.555 21.5C207.555 21.8825 207.423 22.1888 207.104 22.4755L208.442 23.962C209.166 23.3112 209.555 22.4716 209.555 21.5H207.555ZM207.086 22.4928C206.79 22.7725 206.43 22.9219 205.938 22.9219V24.9219C206.903 24.9219 207.767 24.6025 208.461 23.9447L207.086 22.4928ZM205.938 22.9219H191.797V24.9219H205.938V22.9219ZM207.086 14.9766C207.086 15.1232 207.039 15.2853 206.786 15.4937L208.058 17.0376C208.69 16.5168 209.086 15.8195 209.086 14.9766H207.086ZM206.767 15.5099C206.587 15.6663 206.336 15.7734 205.938 15.7734V17.7734C206.737 17.7734 207.476 17.542 208.077 17.0213L206.767 15.5099ZM205.938 15.7734H193.164V17.7734H205.938V15.7734ZM193.164 15.7734C192.767 15.7734 192.489 15.6664 192.271 15.4895L191.01 17.0417C191.626 17.542 192.364 17.7734 193.164 17.7734V15.7734ZM192.299 15.513C192.071 15.3131 192.016 15.1467 192.016 14.9766H190.016C190.016 15.796 190.377 16.489 190.982 17.0182L192.299 15.513ZM192.016 14.9766C192.016 14.849 192.056 14.6916 192.299 14.4791L190.982 12.974C190.392 13.4906 190.016 14.1666 190.016 14.9766H192.016ZM192.271 14.5027C192.489 14.3258 192.767 14.2188 193.164 14.2188V12.2188C192.364 12.2188 191.626 12.4502 191.01 12.9504L192.271 14.5027ZM193.164 14.2188H205.938V12.2188H193.164V14.2188ZM205.938 14.2188C206.316 14.2188 206.584 14.3267 206.802 14.5182L208.119 13.013C207.505 12.4754 206.757 12.2188 205.938 12.2188V14.2188ZM206.83 14.5417C207.051 14.7214 207.086 14.8549 207.086 14.9766H209.086C209.086 14.1607 208.704 13.4869 208.092 12.9895L206.83 14.5417ZM234.805 2.78906L233.81 2.68956L233.805 2.73919V2.78906H234.805ZM237.383 0.25V-0.75H237.341L237.3 -0.746546L237.383 0.25ZM239.258 0.992188L238.569 1.71719L238.588 1.7348L238.607 1.75144L239.258 0.992188ZM240.078 21.3828L241.077 21.4185L241.078 21.4007V21.3828H240.078ZM239.258 23.2188L239.927 23.962L239.937 23.953L239.947 23.9437L239.258 23.2188ZM220.977 23.9219L220.942 24.9213L220.96 24.9219H220.977V23.9219ZM215.781 22.3203L215.126 23.0761L215.136 23.0843L215.781 22.3203ZM213.242 18.9219L212.316 19.2998L212.319 19.3065L213.242 18.9219ZM213.203 11.1484L212.277 10.7705L212.273 10.7804L213.203 11.1484ZM215.742 7.75L216.387 8.51403L216.389 8.51276L215.742 7.75ZM220.273 6.1875V5.1875H220.266L220.259 5.1876L220.273 6.1875ZM231.953 6.96875L231.228 7.6575L231.246 7.67609L231.264 7.69375L231.953 6.96875ZM231.953 10.6797L231.246 9.97258L231.953 10.6797ZM218.828 12.0469L219.559 12.7292L219.57 12.7175L219.581 12.7054L218.828 12.0469ZM218.008 13.4531L217.059 13.1369L217.054 13.1513L217.05 13.1658L218.008 13.4531ZM218.008 16.6562L217.046 16.931L217.054 16.959L217.064 16.9866L218.008 16.6562ZM218.828 18.0625L218.076 18.721L218.086 18.7331L218.097 18.7448L218.828 18.0625ZM220.117 18.6875L220.065 19.6861L220.091 19.6875H220.117V18.6875ZM233.789 18.6875V19.6875H233.808L233.827 19.6868L233.789 18.6875ZM235.8 2.88857C235.862 2.26849 236.049 1.91027 236.268 1.69491C236.487 1.47971 236.847 1.29814 237.466 1.24655L237.3 -0.746546C236.356 -0.667932 235.506 -0.36122 234.865 0.269938C234.224 0.900928 233.904 1.74714 233.81 2.68956L235.8 2.88857ZM237.383 1.25C237.86 1.25 238.237 1.40188 238.569 1.71719L239.947 0.267188C239.237 -0.407089 238.364 -0.75 237.383 -0.75V1.25ZM238.607 1.75144C238.929 2.02753 239.078 2.34767 239.078 2.78906H241.078C241.078 1.77212 240.68 0.894349 239.909 0.232931L238.607 1.75144ZM239.078 2.78906V21.3828H241.078V2.78906H239.078ZM239.079 21.3471C239.062 21.8193 238.897 22.1824 238.569 22.4938L239.947 23.9437C240.66 23.2656 241.042 22.4047 241.077 21.4185L239.079 21.3471ZM238.589 22.4755C238.26 22.7717 237.876 22.9219 237.383 22.9219V24.9219C238.348 24.9219 239.214 24.6033 239.927 23.962L238.589 22.4755ZM237.383 22.9219H220.977V24.9219H237.383V22.9219ZM221.011 22.9225C218.837 22.8484 217.36 22.3448 216.426 21.5563L215.136 23.0843C216.546 24.275 218.533 24.8391 220.942 24.9213L221.011 22.9225ZM216.436 21.5646C215.364 20.6355 214.619 19.6251 214.165 18.5373L212.319 19.3065C212.908 20.7187 213.855 21.9738 215.126 23.076L216.436 21.5646ZM214.168 18.544C213.693 17.3808 213.461 16.2197 213.461 15.0547H211.461C211.461 16.4938 211.749 17.9109 212.316 19.2998L214.168 18.544ZM213.461 15.0547C213.461 13.8256 213.685 12.6484 214.133 11.5165L212.273 10.7804C211.732 12.1484 211.461 13.5755 211.461 15.0547H213.461ZM214.129 11.5263C214.582 10.416 215.325 9.41139 216.387 8.51403L215.097 6.98597C213.816 8.06778 212.866 9.32877 212.277 10.7705L214.129 11.5263ZM216.389 8.51276C217.382 7.67067 218.658 7.21069 220.288 7.1874L220.259 5.1876C218.244 5.2164 216.498 5.79808 215.096 6.98724L216.389 8.51276ZM220.273 7.1875H230.117V5.1875H220.273V7.1875ZM230.117 7.1875C230.577 7.1875 230.925 7.33875 231.228 7.6575L232.678 6.28C231.991 5.55709 231.116 5.1875 230.117 5.1875V7.1875ZM231.264 7.69375C231.583 7.99657 231.734 8.34498 231.734 8.80469H233.734C233.734 7.80606 233.365 6.93052 232.642 6.24375L231.264 7.69375ZM231.734 8.80469C231.734 9.26563 231.581 9.63714 231.246 9.97258L232.66 11.3868C233.366 10.6806 233.734 9.80208 233.734 8.80469H231.734ZM231.246 9.97258C230.947 10.2712 230.594 10.4219 230.117 10.4219V12.4219C231.099 12.4219 231.969 12.0777 232.66 11.3868L231.246 9.97258ZM230.117 10.4219H220.117V12.4219H230.117V10.4219ZM220.117 10.4219C219.298 10.4219 218.605 10.7835 218.076 11.3884L219.581 12.7054C219.781 12.4769 219.947 12.4219 220.117 12.4219V10.4219ZM218.097 11.3646C217.627 11.8683 217.283 12.4647 217.059 13.1369L218.956 13.7694C219.097 13.3478 219.3 13.0067 219.559 12.7292L218.097 11.3646ZM217.05 13.1658C216.867 13.7757 216.773 14.3933 216.773 15.0156H218.773C218.773 14.5963 218.836 14.1722 218.966 13.7405L217.05 13.1658ZM216.773 15.0156C216.773 15.6591 216.866 16.2983 217.046 16.931L218.969 16.3815C218.838 15.9204 218.773 15.4659 218.773 15.0156H216.773ZM217.064 16.9866C217.289 17.6284 217.627 18.2085 218.076 18.721L219.581 17.404C219.3 17.0832 219.092 16.7257 218.952 16.3259L217.064 16.9866ZM218.097 18.7448C218.623 19.3084 219.29 19.6453 220.065 19.6861L220.17 17.6889C219.955 17.6776 219.762 17.5978 219.559 17.3802L218.097 18.7448ZM220.117 19.6875H233.789V17.6875H220.117V19.6875ZM233.827 19.6868C234.313 19.6681 234.848 19.5308 235.258 19.1212C235.674 18.7049 235.805 18.1647 235.805 17.6719H233.805C233.805 17.7504 233.794 17.7803 233.795 17.7779C233.796 17.7759 233.799 17.7663 233.808 17.7521C233.817 17.7376 233.829 17.7219 233.844 17.707C233.859 17.6921 233.873 17.6815 233.884 17.6747C233.895 17.6681 233.9 17.6668 233.896 17.6682C233.891 17.6697 233.878 17.6739 233.854 17.6782C233.83 17.6825 233.796 17.6865 233.751 17.6882L233.827 19.6868ZM235.805 17.6719V2.78906H233.805V17.6719H235.805Z" fill="#A10000"/>
</g>
<defs>
<filter id="filter0_d_1_3" x="-1.42188" y="0.25" width="245.5" height="40.7344" filterUnits="userSpaceOnUse" color-interpolation-filters="sRGB">
<feFlood flood-opacity="0" result="BackgroundImageFix"/>
<feColorMatrix in="SourceAlpha" type="matrix" values="0 0 0 0 0 0 0 0 0 0 0 0 0 0 0 0 0 0 127 0" result="hardAlpha"/>
<feOffset dy="4"/>
<feGaussianBlur stdDeviation="2"/>
<feComposite in2="hardAlpha" operator="out"/>
<feColorMatrix type="matrix" values="0 0 0 0 0 0 0 0 0 0 0 0 0 0 0 0 0 0 0.25 0"/>
<feBlend mode="normal" in2="BackgroundImageFix" result="effect1_dropShadow_1_3"/>
<feBlend mode="normal" in="SourceGraphic" in2="effect1_dropShadow_1_3" result="shape"/>
</filter>
</defs>
</svg>
